<svg xmlns="http://www.w3.org/2000/svg" width="58" height="58" fill="none"><g fill="#1B74BA" clip-path="url(#a)"><path d="M27.327 42.921a.98.98 0 0 0-1.371.21l-.121.165a.98.98 0 0 0 1.579 1.163l.123-.167a.98.98 0 0 0-.21-1.37"/><path d="m27.583 52.25-2.522-4.586 2.354-3.207a.981.981 0 1 0-1.58-1.16l-2.726 3.711a.98.98 0 0 0-.069 1.053l2.824 5.134a.981.981 0 0 0 1.719-.945m7.308-5.242-2.714-3.696a.98.98 0 0 0-1.58 1.161l2.342 3.191-2.504 4.555a.98.98 0 1 0 1.718.946l2.807-5.103a.98.98 0 0 0-.069-1.054m1.554-15.41a.98.98 0 0 0-1.012.06c-.584.402-1.125.828-1.609 1.266-2.639 2.385-5.146 2.063-5.244 2.048a1 1 0 0 0-.18-.011c-1.042.026-2.923-.927-4.912-2.489q-.451-.355-.928-.677a.98.98 0 0 0-1.529.813v3.364a.98.98 0 0 0 .453.826l6.953 4.646.003.003.019.012a.98.98 0 0 0 1.094-.007l.01-.007.012-.007 6.936-4.636a.98.98 0 0 0 .459-.83v-3.506a.98.98 0 0 0-.525-.868m-1.437 3.85L29 39.461l-6.008-4.015v-.892c1.463 1.064 3.615 2.367 5.37 2.367h.01c.59.066 3.593.243 6.637-2.427z"/><path d="M29.967 40.48a.98.98 0 0 0-1.758-.419l-2.254 3.07a.98.98 0 1 0 1.581 1.16l2.242-3.053a.98.98 0 0 0 .189-.758M43.939 8.867c-.02-.154-.479-3.469-3.6-4.777.091-.582.082-1.33-.288-2.059-.497-.978-1.477-1.616-2.914-1.895a1 1 0 0 0-.187-.018H23.788c-5.344 0-9.692 4.348-9.692 9.692v5.165c0 1.346.458 2.658 1.29 3.694.414.515.922 1.412.999 2.77a.979.979 0 0 0 1.682.628.98.98 0 0 0 .277-.684V14.65c.666-2.754 2.939-3.29 3.33-3.362h4.257c.5 0 .993-.077 1.464-.228.81-.26 2.093-.737 3.029-1.092a2.84 2.84 0 0 1 1.95-.025l4.557 1.6c2.279.84 2.685 2.841 2.736 3.155v8.081a.981.981 0 0 0 1.95.145c.004-.025.396-2.554 1.658-4.58.44-.704.672-1.508.672-2.324V8.99a1 1 0 0 0-.008-.123m-1.953 7.153c0 .438-.124.872-.358 1.259V14.63a1 1 0 0 0-.006-.106c-.015-.142-.42-3.503-4.021-4.825l-.013-.005-4.565-1.603a4.8 4.8 0 0 0-3.296.042c-1.31.498-2.323.864-2.931 1.059a2.8 2.8 0 0 1-.865.134h-4.337a1 1 0 0 0-.126.008c-.166.021-4.077.577-5.061 4.99a1 1 0 0 0-.024.213v2.018a4 4 0 0 1-.326-1.58V9.81c0-4.263 3.468-7.732 7.73-7.732h13.064c.54.116 1.198.352 1.447.833.305.589-.042 1.4-.043 1.4a.98.98 0 0 0 .658 1.37c2.497.601 3.006 2.996 3.073 3.383z"/><path d="M41.624 14.526c-.016-.143-.42-3.503-4.022-4.826l-.013-.005-4.564-1.602a4.8 4.8 0 0 0-3.297.041c-1.309.498-2.322.864-2.93 1.059a2.8 2.8 0 0 1-.866.133h-4.336a1 1 0 0 0-.126.008 6.24 6.24 0 0 0-5.062 4.99 1 1 0 0 0-.023.213v8.452c.006.293.213 7.209 4.992 10.371l.024.018.063.043q.418.282.813.594c1.392 1.093 4.016 2.908 6.085 2.908h.012c.112.012.313.029.585.029 1.172 0 3.674-.308 6.18-2.573.421-.38.894-.752 1.407-1.105l.073-.052.073-.05c1.594-1.07 4.354-3.833 4.934-10.305l.004-.088v-8.148q0-.052-.006-.106m-1.956 8.209c-.534 5.841-3.023 8.105-4.07 8.809q-.056.037-.11.076l-.055.038c-.583.402-1.124.828-1.608 1.266-2.63 2.377-5.129 2.065-5.251 2.047a1 1 0 0 0-.173-.01c-1.043.027-2.923-.926-4.912-2.489a16 16 0 0 0-.928-.676l-.024-.017-.075-.052c-3.855-2.552-4.108-8.524-4.116-8.774V14.65c.668-2.764 2.955-3.294 3.327-3.362h4.26c.5 0 .992-.077 1.463-.228.81-.26 2.094-.737 3.029-1.092a2.84 2.84 0 0 1 1.95-.025l4.558 1.6c2.278.84 2.685 2.841 2.735 3.155zm-9.79 17.469a.98.98 0 0 0-1.668-.142l-2.349 3.199a.98.98 0 0 0 1.58 1.162l2.35-3.187c.123-.169.19-.384.19-.594a1 1 0 0 0-.103-.439m.063 15.788a.98.98 0 0 0-1.37-.045l-.225.205a.98.98 0 0 0-.194 1.201l.007.012a.98.98 0 0 0 1.55.216l.217-.218a.98.98 0 0 0 .015-1.37"/><path d="m29.655 56.152-.225-.205a.98.98 0 0 0-1.355 1.417l.218.217a.98.98 0 0 0 1.553-.222l.007-.012a.98.98 0 0 0-.198-1.195"/><path d="m29.672 56.167-.001-.001a.98.98 0 0 0-1.339-.002l-.003.003a.98.98 0 0 0-.03 1.42l.01.01a.977.977 0 0 0 1.385-.002l.01-.01a.98.98 0 0 0-.032-1.418m-.353-16.474a.98.98 0 0 0-1.1.368.98.98 0 0 0 .802 1.547.98.98 0 0 0 .982-.98v-.003a.98.98 0 0 0-.684-.932"/><path d="m29.797 40.053-.009-.011a.98.98 0 0 0-1.769.583v.017a.98.98 0 0 0 .983.976.99.99 0 0 0 .826-.444.98.98 0 0 0-.031-1.12"/><path d="M40.666 36.973a.98.98 0 0 0-.586-.576l-3.76-1.348a.98.98 0 0 0-.877.108l-6.966 4.655-.006.004.547.813-.56-.805a.98.98 0 0 0-.248 1.399l5.1 6.946a.98.98 0 0 0 1.65-.108l5.648-10.269a.98.98 0 0 0 .058-.82m-6.684 8.797-3.585-4.882 5.725-3.826 2.213.793z"/><path d="M29.967 40.473a.98.98 0 0 0-.42-.646l-6.99-4.67a.98.98 0 0 0-.876-.108l-3.76 1.348a.98.98 0 0 0-.528 1.395l5.648 10.27a.98.98 0 0 0 1.65.107l2.725-3.712.006-.009 2.369-3.226a.98.98 0 0 0 .176-.75m-4.132 2.823-.007.01-1.81 2.464-4.353-7.915 2.213-.793 5.725 3.826zm32.117 10.417-1.265-7.639a6.76 6.76 0 0 0-4.366-5.248l-12.239-4.428a.98.98 0 0 0-1.21 1.36l2.554 5.124-2.507.038a.98.98 0 0 0-.853 1.436l1.028 1.963-10.524 9.628-.032.03-.217.217a.98.98 0 0 0-.167 1.164l.008.014a.98.98 0 0 0 .86.51h25.395a3.58 3.58 0 0 0 2.733-1.266 3.58 3.58 0 0 0 .802-2.903m-2.298 1.635a1.62 1.62 0 0 1-1.237.573H31.504l9.471-8.664a.98.98 0 0 0 .207-1.179l-.64-1.221 2.473-.038a.98.98 0 0 0 .862-1.418l-2.156-4.325 9.933 3.594a4.8 4.8 0 0 1 3.098 3.724l1.265 7.64a1.62 1.62 0 0 1-.363 1.314"/><path d="m29.68 56.175-.012-.01a.98.98 0 0 0-1.353.035l-.01.01A.982.982 0 0 0 29 57.882h.022a.98.98 0 0 0 .658-1.707"/><path d="M29.649 56.146a.98.98 0 0 0-1.516.258l-.007.012a.98.98 0 0 0 .155 1.153l.004.004a.98.98 0 0 0 .705.299.98.98 0 0 0 .66-.257l.01-.009a1 1 0 0 0 .217-.286.99.99 0 0 0-.228-1.174"/><path d="m29.691 56.206-.004-.004-.008-.008-.217-.217-.032-.03-10.524-9.627 1.029-1.964a.98.98 0 0 0-.854-1.435l-2.507-.039 2.555-5.124a.98.98 0 0 0-1.211-1.36L5.68 40.826a6.76 6.76 0 0 0-4.367 5.248l-1.265 7.64a3.58 3.58 0 0 0 2.03 3.837c.472.219.986.332 1.506.331H29a.98.98 0 0 0 .691-1.676m-26.107-.285a1.62 1.62 0 0 1-1.6-1.888l1.264-7.639a4.8 4.8 0 0 1 3.099-3.724l9.933-3.594-2.156 4.325a.98.98 0 0 0 .862 1.418l2.473.038-.64 1.221a.98.98 0 0 0 .207 1.179l9.471 8.664z"/><path d="M32.338 44.13a.98.98 0 0 0-.161-.819l-2.387-3.25a.98.98 0 0 0-1.095-.345.98.98 0 0 0-.516.399l-2.343 3.179a.98.98 0 0 0-.016 1.143l.998 1.433-1.063 6.7a.98.98 0 0 0 .11.625l2.276 4.14a.98.98 0 0 0 1.718 0l2.294-4.17a.99.99 0 0 0 .11-.627l-1.059-6.668.987-1.417a1 1 0 0 0 .147-.323M29 54.827l-1.256-2.282 1.073-6.758a.98.98 0 0 0-.164-.714l-.822-1.18 1.172-1.59 1.178 1.605-.812 1.165a.98.98 0 0 0-.164.714l1.068 6.727z"/></g><defs><clipPath id="a"><path fill="#fff" d="M0 0h58v58H0z"/></clipPath></defs></svg>