<svg xmlns="http://www.w3.org/2000/svg" width="54" height="54" fill="none"><path fill="#1B74BA" d="M43.549 24.387h3.484a.87.87 0 0 0 0-1.742h-3.484a.87.87 0 1 0 0 1.742m-12.194 0h3.484a.871.871 0 0 0 0-1.742h-3.484a.87.87 0 1 0 0 1.742m11.177 5.182a4 4 0 0 1-3.338 1.786 4 4 0 0 1-3.338-1.786l-.292-.44-1.45.966.293.44a5.74 5.74 0 0 0 4.787 2.562 5.74 5.74 0 0 0 4.787-2.562l.292-.439-1.449-.965z"/><path fill="#1B74BA" d="M54 16.125c0-6.01-4.889-10.9-10.899-10.9h-5.876a6.93 6.93 0 0 0-6.47 4.38c-3.562.307-6.367 3.303-6.367 6.943v.767c0 1.24.343 2.437.964 3.502a4.3 4.3 0 0 0-.964 2.699 4.36 4.36 0 0 0 3.524 4.271c.342 4.178 3.372 7.6 7.357 8.533a7.18 7.18 0 0 0-3.856 5.63q-.037.012-.073.024c.002-.057.015-.111.015-.168v-1.742H20.905V27.871H18.29a2.616 2.616 0 0 0-2.613 2.613v11.322a3.487 3.487 0 0 0 3.484 3.484h3.644a2.6 2.6 0 0 0-.16.871A4.36 4.36 0 0 0 27 50.516h4.354V54H43.55v-5.322a6.08 6.08 0 0 0 1.742-4.258v-5.227a4.34 4.34 0 0 0-1.32-3.112c3.558-1.194 6.189-4.418 6.506-8.294A4.36 4.36 0 0 0 54 23.516a4.32 4.32 0 0 0-1.041-2.792c.67-1.438 1.04-3.01 1.04-4.599m-27.87.423a5.23 5.23 0 0 1 5.226-5.225h.59l.427-1.07a5.2 5.2 0 0 1 4.852-3.285H43.1c5.05 0 9.158 4.107 9.158 9.157 0 1.2-.248 2.39-.705 3.496a4.3 4.3 0 0 0-1.117-.38 4.355 4.355 0 0 0-4.275-3.564H32.226a4.356 4.356 0 0 0-4.274 3.564 4.3 4.3 0 0 0-1.241.447 5.2 5.2 0 0 1-.581-2.373zm3.483 5.226c0-.48.392-.87.872-.87h17.419c.48 0 .87.39.87.87v3.484c0 .48-.39.87-.87.87h-5.02a.87.87 0 0 1-.78-.48l-.87-1.743a2.27 2.27 0 0 0-2.04-1.26c-.87 0-1.651.483-2.04 1.26l-.87 1.742a.87.87 0 0 1-.78.482h-5.02a.87.87 0 0 1-.87-.871zm.123-2.49a2.61 2.61 0 0 1 2.49-1.865h13.936c1.18 0 2.166.79 2.49 1.865a2.6 2.6 0 0 0-.748-.123h-17.42c-.262 0-.509.05-.748.123m-3.606 4.232a2.61 2.61 0 0 1 1.742-2.453v4.906a2.61 2.61 0 0 1-1.742-2.453M36.61 37.61l.32-.12a4.4 4.4 0 0 0-.349 1.703v2.614h-3.41a5.44 5.44 0 0 1 3.439-4.197m-19.19-7.126c0-.48.391-.871.871-.871h.87v10.451H17.42zm0 11.322h12.193c0 .465-.18.904-.509 1.232a1.73 1.73 0 0 1-1.232.51h-8.71c-.96 0-1.742-.781-1.742-1.742m6.968 4.355c0-.48.39-.87.87-.87h2.614a3.45 3.45 0 0 0 1.741-.482v3.096c0 .306.063.596.16.87h-2.772a2.616 2.616 0 0 1-2.613-2.614m8.71 6.097v-1.741h6.096a6.06 6.06 0 0 0 2.613-.597v2.338zm10.451-13.065v5.227a4.36 4.36 0 0 1-4.355 4.355h-6.968a.87.87 0 0 1-.87-.871V44.42c0-.48.39-.87.87-.87h4.761l1.482 2.225 1.45-.966-1.595-2.394v-3.222a2.6 2.6 0 0 1 .764-1.848 2.6 2.6 0 0 1 1.834-.764h.014a2.615 2.615 0 0 1 2.613 2.612m-2.613-4.354h-3.484c-4.078 0-7.436-3.132-7.802-7.117.264.09.541.149.835.149h5.02a2.6 2.6 0 0 0 2.337-1.444l.87-1.742c.184-.367.78-.367.963 0l.87 1.742a2.6 2.6 0 0 0 2.339 1.444h5.02c.293 0 .57-.06.834-.15-.366 3.986-3.723 7.118-7.802 7.118m9.58-8.87v-4.906a2.61 2.61 0 0 1 1.743 2.453 2.61 2.61 0 0 1-1.742 2.453M11.324 4.355a6.976 6.976 0 0 0-6.968 6.967 6.976 6.976 0 0 0 6.968 6.968 6.976 6.976 0 0 0 6.968-6.967 6.976 6.976 0 0 0-6.968-6.968m0 12.193a5.23 5.23 0 0 1-5.226-5.225 5.23 5.23 0 0 1 5.226-5.226 5.23 5.23 0 0 1 5.226 5.225 5.23 5.23 0 0 1-5.226 5.226"/><path fill="#1B74BA" d="M11.322 7.839a3.487 3.487 0 0 0-3.484 3.483 3.487 3.487 0 0 0 3.484 3.484 3.487 3.487 0 0 0 3.484-3.483 3.487 3.487 0 0 0-3.484-3.484m0 5.225c-.96 0-1.742-.78-1.742-1.742 0-.96.781-1.741 1.742-1.741.96 0 1.742.78 1.742 1.742 0 .96-.782 1.741-1.742 1.741"/><path fill="#1B74BA" d="m21.612 17.045-.728-1.523a9 9 0 0 0 .17-.41l1.591-.56V8.093l-1.59-.562a12 12 0 0 0-.17-.41l.727-1.522-4.567-4.566-1.523.728a9 9 0 0 0-.41-.17L14.552 0H8.093l-.56 1.59q-.207.081-.411.171L5.6 1.033 1.033 5.6l.728 1.523q-.09.203-.17.41L0 8.092v6.458l1.59.562q.081.206.171.41l-.728 1.522L5.6 21.612l1.523-.728q.204.091.41.17l.56 1.591h6.458l.562-1.59q.206-.08.41-.17l1.523.727zm-6.089 1.908-.379.186q-.486.24-.999.416l-.399.137-.427 1.211H9.325l-.427-1.212-.4-.137a9 9 0 0 1-.997-.415l-.38-.186-1.161.556-2.824-2.824.556-1.162-.185-.379a9 9 0 0 1-.417-.999l-.137-.399-1.211-.427V9.325l1.212-.427.137-.4q.172-.502.416-.997l.185-.38-.556-1.161L5.96 3.136l1.162.556.379-.185q.486-.24.999-.417l.399-.137.427-1.211h3.994l.427 1.212.4.137c.333.114.669.254.998.416l.38.186 1.161-.556 2.824 2.824-.556 1.162.186.379c.162.329.3.665.416.999l.137.399 1.21.426v3.994l-1.212.427-.137.4a9 9 0 0 1-.416.998l-.186.38.556 1.161-2.824 2.824zM0 43.548h13.936v-5.225H0zm1.742-3.483h10.452v1.741H1.742zM0 36.58h13.936v-5.226H0zm1.742-3.484h10.452v1.742H1.742zM0 27.87h13.936v1.742H0zm0-3.484h1.742v1.742H0zm3.484 0h10.452v1.742H3.483zm43.548 13.936H54v1.742h-6.968zm5.226 3.483H54v1.742h-1.742zm-5.226 0h3.484v1.742h-3.484zm0 3.484H54v1.742h-6.968z"/></svg>