<svg xmlns="http://www.w3.org/2000/svg" width="58" height="58" fill="none"><path fill="#1B74BA" d="M55.913 52.657a10.75 10.75 0 0 0-7.146-9.015 5.89 5.89 0 0 0 2.327-4.69 5.9 5.9 0 0 0-3.014-5.141 20.6 20.6 0 0 0 1.36-3.684l3.38-1.301a.91.91 0 0 0 .58-.846V21.74a.91.91 0 0 0-.58-.845l-3.38-1.3a20.5 20.5 0 0 0-2.133-5.148l1.47-3.311a.905.905 0 0 0-.187-1.01l-4.411-4.41a.91.91 0 0 0-1.009-.188l-3.313 1.472a20.5 20.5 0 0 0-5.145-2.134l-1.301-3.38a.905.905 0 0 0-.846-.58h-6.238a.91.91 0 0 0-.846.58l-1.3 3.38A20.5 20.5 0 0 0 19.034 7l-3.313-1.47a.91.91 0 0 0-1.009.187l-4.41 4.411a.91.91 0 0 0-.188 1.009l1.47 3.312a20.5 20.5 0 0 0-2.133 5.146l-3.38 1.3a.91.91 0 0 0-.58.846v6.239a.91.91 0 0 0 .58.845l3.38 1.301a20.6 20.6 0 0 0 1.195 3.339 5.89 5.89 0 0 0-1.414 10.177 10.75 10.75 0 0 0-7.146 9.015.906.906 0 0 0 .901 1.003h15.843c-.275.786-.459 1.602-.547 2.43a.907.907 0 0 0 .9 1.003h19.631a.907.907 0 0 0 .901-1.002 10.8 10.8 0 0 0-.548-2.431h15.844a.907.907 0 0 0 .9-1.003m-6.631-13.704a4.09 4.09 0 0 1-4.085 4.085 4.09 4.09 0 0 1-4.085-4.085 4.09 4.09 0 0 1 4.085-4.086 4.09 4.09 0 0 1 4.085 4.086m-13.613 9.821a10.7 10.7 0 0 0-3.098-1.698 5.9 5.9 0 0 0 1.736-2.12c1.95-.47 3.82-1.223 5.552-2.235l1.411.627q.173.155.357.295c-.923.324-1.797.773-2.599 1.334a10.8 10.8 0 0 0-3.36 3.797m-13.338 0a10.8 10.8 0 0 0-3.359-3.797 10.8 10.8 0 0 0-2.28-1.215l2.343-1.041a20.6 20.6 0 0 0 4.532 1.959 5.93 5.93 0 0 0 1.862 2.396c-1.12.391-2.166.965-3.098 1.698M29 46.471a4.09 4.09 0 0 1-4.085-4.085A4.09 4.09 0 0 1 29 38.301a4.09 4.09 0 0 1 4.085 4.085A4.09 4.09 0 0 1 29 46.471M24.062 21.6a5.39 5.39 0 0 1 5.384-5.384A5.39 5.39 0 0 1 34.83 21.6a5.39 5.39 0 0 1-5.381 5.384h-.006a5.39 5.39 0 0 1-5.38-5.384m4.612 7.222q.384-.026.77-.026h.005q.386.001.769.026l-.772.598zm2.074 1.882 1.878-1.455q.2.058.397.123l-1.358 2.42zm-4.482-1.455 1.878 1.455-.917 1.088-1.358-2.42q.197-.065.397-.123m2.145 7.248.9-4.366.135-.159.135.16.9 4.365-.135.15a5.9 5.9 0 0 0-1.916-.13zm4.147 1.191a6 6 0 0 0-.438-.302l.014-.014a.9.9 0 0 0 .215-.791l-.475-2.302.027-.001a.9.9 0 0 0 .705-.459l2.1-3.743a11.6 11.6 0 0 1 4.325 3.84 13.13 13.13 0 0 1-6.473 3.772m7.664-5.23a13.44 13.44 0 0 0-6.803-4.862 7.2 7.2 0 0 0 3.224-5.996c0-3.968-3.229-7.196-7.197-7.196s-7.196 3.228-7.196 7.196c0 2.5 1.282 4.706 3.223 5.996a13.44 13.44 0 0 0-6.81 4.873 13.2 13.2 0 0 1-2.413-7.607c0-7.277 5.92-13.196 13.196-13.196 7.277 0 13.197 5.92 13.197 13.196 0 2.793-.89 5.426-2.42 7.596m-16.036-2.382 2.1 3.743a.9.9 0 0 0 .705.459l.027.001-.475 2.302a.9.9 0 0 0 .02.438q-.46.21-.878.493a13.14 13.14 0 0 1-5.83-3.587 11.6 11.6 0 0 1 4.33-3.85m-13.088-.835a.9.9 0 0 0-.556-.636l-3.238-1.246v-4.994l3.239-1.247a.9.9 0 0 0 .556-.636 18.7 18.7 0 0 1 2.278-5.495.9.9 0 0 0 .056-.843l-1.41-3.173 3.532-3.532 3.174 1.41a.9.9 0 0 0 .843-.056 18.7 18.7 0 0 1 5.495-2.278.9.9 0 0 0 .636-.556l1.246-3.24h4.994l1.247 3.24a.9.9 0 0 0 .635.555 18.7 18.7 0 0 1 5.495 2.278.9.9 0 0 0 .843.057l3.174-1.41 3.531 3.531-1.409 3.174a.9.9 0 0 0 .057.842 18.7 18.7 0 0 1 2.278 5.496.9.9 0 0 0 .556.636l3.238 1.247v4.994l-3.239 1.246a.9.9 0 0 0-.556.636c-.324 1.36-.8 2.68-1.417 3.933a5.904 5.904 0 0 0-7.077 5.78c0 .651.108 1.278.304 1.865a.9.9 0 0 0-.282.112 18.7 18.7 0 0 1-4.45 1.997q.026-.267.026-.54c.001-1.139-.33-2.253-.95-3.206a15.1 15.1 0 0 0 7.094-4.79 15.03 15.03 0 0 0 3.413-9.53c0-8.276-6.733-15.01-15.008-15.01-8.276 0-15.01 6.734-15.01 15.01a15.02 15.02 0 0 0 9.786 14.074 5.86 5.86 0 0 0-1.114 3.69 18.8 18.8 0 0 1-3.536-1.695.9.9 0 0 0-.843-.057l-.419.186c.258-.672.39-1.386.39-2.106a5.904 5.904 0 0 0-6.24-5.887 18.8 18.8 0 0 1-1.362-3.826m1.705 5.627a4.09 4.09 0 0 1 4.085 4.086 4.09 4.09 0 0 1-4.085 4.085 4.09 4.09 0 0 1-4.085-4.085 4.09 4.09 0 0 1 4.085-4.086m-8.75 16.98a8.944 8.944 0 0 1 8.75-6.997c3.493 0 6.697 2.077 8.147 5.222-.488.546-.92 1.141-1.287 1.775zm16.197 3.434A8.944 8.944 0 0 1 29 48.284c4.25 0 7.85 2.944 8.75 6.997zm18.087-3.433a10.7 10.7 0 0 0-1.287-1.776c1.45-3.145 4.654-5.222 8.147-5.222a8.944 8.944 0 0 1 8.75 6.997z"/></svg>