<svg xmlns="http://www.w3.org/2000/svg" width="58" height="52" fill="none"><path fill="#1B74BA" d="M48.068 46.378c4.977 0 9.026-4.05 9.026-9.026 0-4.977-4.05-9.026-9.026-9.026a9 9 0 0 0-2.244.282V14.391c0-4.278-3.481-7.759-7.76-7.759h-1.75C34.57 3.108 30.938.679 26.748.679s-7.822 2.43-9.564 5.953h-1.75c-4.28 0-7.76 3.48-7.76 7.759v17.716H3.613a1.78 1.78 0 0 0-1.778 1.777v4.284c0 .98.798 1.777 1.778 1.777h2.973v9.564H1.813a.906.906 0 0 0 0 1.812h49.931a.907.907 0 0 0 0-1.812h-4.766v-3.2q.543.067 1.09.069m7.213-9.026c0 3.977-3.236 7.213-7.213 7.213-3.978 0-7.214-3.236-7.214-7.213 0-3.978 3.236-7.214 7.214-7.214 3.977 0 7.213 3.236 7.213 7.214M21.29 32.107H10.328a18.33 18.33 0 0 1 13.744-9.91l-2.901 9.121a.9.9 0 0 0 .118.789m2.411 0-.646-.73 2.977-9.36q.356-.015.713-.015h.01q.357.001.714.016l2.977 9.359-.647.73zm8.628-.789-2.9-9.115a18.49 18.49 0 0 1 12.805 8.27 9 9 0 0 0-1.504 1.634h-8.52a.9.9 0 0 0 .119-.789m5.736-22.874a5.953 5.953 0 0 1 5.947 5.947v14.902a9 9 0 0 0-.286.15 20.3 20.3 0 0 0-6.762-6.484 20 20 0 0 0-5.296-2.16c3.41-1.781 5.744-5.352 5.744-9.458 0-.98-.134-1.954-.4-2.897zM26.75 2.491c4.88 0 8.85 3.97 8.85 8.85 0 4.878-3.969 8.848-8.847 8.849h-.006c-4.878-.002-8.846-3.97-8.846-8.85s3.97-8.849 8.85-8.849M15.434 8.444h1.053c-.266.943-.4 1.917-.4 2.897 0 4.103 2.331 7.672 5.738 9.454a20.1 20.1 0 0 0-6.432 2.887 20.2 20.2 0 0 0-5.905 6.212V14.391a5.953 5.953 0 0 1 5.946-5.947M3.648 33.92h36.074a9 9 0 0 0-.644 4.214H3.648zm41.518 15.59H8.398v-9.563h31.025a9.06 9.06 0 0 0 5.743 5.95zm-2.454-13.79a2.34 2.34 0 0 0 0 3.308l2.228 2.228c.467.467 1.042.773 1.618.861q.18.027.355.027c.595 0 1.153-.235 1.599-.68l4.912-4.912a2.34 2.34 0 0 0 0-3.308 2.34 2.34 0 0 0-3.308 0L46.83 36.53l-.81-.81a2.34 2.34 0 0 0-3.308 0m1.282 1.282a.533.533 0 0 1 .744 0l1.451 1.451a.906.906 0 0 0 1.282 0l3.927-3.927a.533.533 0 0 1 .744 0 .533.533 0 0 1 0 .744l-4.912 4.912c-.126.126-.241.168-.397.144-.192-.03-.42-.161-.611-.352l-2.228-2.228a.533.533 0 0 1 0-.744"/></svg>