<svg xmlns="http://www.w3.org/2000/svg" width="58" height="52" fill="none"><path fill="#1B74BA" fill-rule="evenodd" d="M19.787 40.465c-.138 0-.285-.032-.424-.097l-4.25-2.031 4.674 10.277 4.682-10.277-4.257 2.03a.95.95 0 0 1-.425.098m14.445 9.543h3.377v-6.37a6.37 6.37 0 0 0-3.703-5.783.6.6 0 0 1-.13-.057 6.3 6.3 0 0 0-2.537-.53h-2.65l2.03 2.439a.975.975 0 0 1-.04 1.305l-8.5 8.996h10V44.69a.983.983 0 1 1 1.966 0v5.318zm21.794-3.417V30.539h-6.64v7.316c0 .392-.236.75-.595.906a.98.98 0 0 1-1.068-.196l-2.104-2.015-2.088 2.015a.99.99 0 0 1-.677.277.991.991 0 0 1-.987-.987V30.54h-6.64v5.775c2.586 1.42 4.356 4.168 4.356 7.324v2.953zm-8.605-16.052h-3.589v5l1.102-1.06a.983.983 0 0 1 1.37 0l1.117 1.068zm-14.167 5.008v-5.995c0-.546.44-.987.986-.987h22.773c.547 0 .987.44.987.987v21.443c0 .547-.44.987-.987.987H.987A.985.985 0 0 1 0 50.995v-7.357c0-4.592 3.744-8.335 8.336-8.335H12.3l.848-3.85c-1.166-.938-2.047-2.203-2.406-3.81l-1.02-4.591c-.579-1.028-3.817-7.21-2.014-12.928.073-.253.611-2.04 2.112-3.826 1.46-1.737 4.16-3.817 8.687-3.817.75 0 1.533.057 2.324.171.612.033 6.044.498 8.695 4.258.58.074 1.493.343 2.219 1.28 1.321 1.722 1.386 4.919.187 9.503-.359 1.313-1.223 4.29-2.096 5.448l-.995 4.503c-.359 1.606-1.24 2.87-2.414 3.809l.848 3.85h3.964c.693 0 1.37.081 2.015.244m6.329 14.461h16.443v-1.451H39.583zm7.716-27.34h-3.336a.99.99 0 0 1-.97-.8l-.515-2.674a7.9 7.9 0 0 1-2.071-1.2l-2.578.898a.99.99 0 0 1-1.174-.44l-1.664-2.888a.985.985 0 0 1 .204-1.24l2.055-1.778c-.049-.4-.081-.8-.081-1.199 0-.4.032-.807.081-1.199l-2.055-1.786a.974.974 0 0 1-.204-1.232l1.664-2.887a.98.98 0 0 1 1.174-.44l2.578.889a8.3 8.3 0 0 1 2.071-1.2l.514-2.675a.99.99 0 0 1 .97-.79H47.3c.465 0 .873.334.962.79l.514 2.676a8.5 8.5 0 0 1 2.08 1.199l2.57-.89a.975.975 0 0 1 1.174.441L56.27 7.13a.986.986 0 0 1-.212 1.232l-2.056 1.786c.057.392.082.8.082 1.2q.002.598-.082 1.198l2.056 1.778c.359.31.44.832.212 1.24l-1.672 2.887a.985.985 0 0 1-1.175.44l-2.569-.896a8 8 0 0 1-2.08 1.199l-.514 2.675a.985.985 0 0 1-.962.8m-2.529-1.974h1.713l.465-2.422a.99.99 0 0 1 .669-.75 6.34 6.34 0 0 0 2.365-1.37.99.99 0 0 1 .987-.197l2.333.808.856-1.485-1.867-1.614a.98.98 0 0 1-.319-.947 6.5 6.5 0 0 0 0-2.74.98.98 0 0 1 .319-.954l1.867-1.615-.856-1.477-2.333.808a.99.99 0 0 1-.987-.204 6.4 6.4 0 0 0-2.365-1.37.98.98 0 0 1-.669-.75l-.465-2.423H44.77l-.465 2.422a.97.97 0 0 1-.66.75 6.4 6.4 0 0 0-2.374 1.37.99.99 0 0 1-.987.205l-2.332-.808-.849 1.477 1.86 1.615c.277.236.4.603.318.954q-.137.672-.139 1.37c0 .457.05.922.14 1.37a.95.95 0 0 1-.319.947l-1.86 1.614.849 1.485 2.332-.808a.99.99 0 0 1 .987.196 6.3 6.3 0 0 0 2.374 1.37c.342.115.595.4.66.75zm.857-5.008c-2.39 0-4.34-1.949-4.34-4.339A4.35 4.35 0 0 1 45.628 7a4.344 4.344 0 0 1 0 8.686m0-6.712a2.376 2.376 0 0 0-2.374 2.373 2.38 2.38 0 0 0 2.374 2.374A2.38 2.38 0 0 0 48 11.347a2.376 2.376 0 0 0-2.373-2.373M27.952 22.57c.057-1.745-.163-6.37-1.892-8.172-.457-.482-.995-.718-1.632-.718-.342 0-.717.065-1.125.204-.67.383-4.364 2.414-8.524 2.447-.293.049-1.851.391-2.74 1.704-.726 1.06-.873 2.529-.449 4.372q.027.074.041.147l1.028 4.666c.293 1.296 1.084 2.291 2.137 3.001h.008c1.395.938 3.238 1.378 4.983 1.378 3.067 0 6.46-1.354 7.129-4.38zm-3.524-10.856c1.191 0 2.219.44 3.059 1.322 1.264 1.32 1.876 3.474 2.17 5.423.138-.432.26-.856.375-1.272 1.354-5.196.677-7.112.155-7.79-.367-.464-.8-.538-1.028-.538h-.04c-.409.074-.767-.114-.98-.464-2.071-3.45-7.405-3.777-7.454-3.785-.033 0-.057 0-.09-.008a16 16 0 0 0-2.088-.155c-7.145 0-8.834 5.962-8.899 6.215-.008.008-.008.033-.016.04-.8 2.521-.416 5.237.212 7.39q.242-.638.62-1.19c1.492-2.17 4.037-2.52 4.143-2.537.041 0 .082-.008.13-.008 3.981 0 7.643-2.194 7.684-2.219a1.3 1.3 0 0 1 .188-.09q.978-.332 1.86-.334m-4.64 21.851c-1.64 0-3.353-.334-4.862-1.028l-.701 3.198 5.562 2.65 5.571-2.65-.701-3.198c-1.51.694-3.23 1.028-4.87 1.028m-6.942 4.551-1.819 2.178 5.416 5.726zM23.14 46.02l5.407-5.726-1.81-2.17zM1.974 50.008H5.53V44.69c0-.546.44-.986.987-.986s.987.44.987.986v5.318h10l-8.508-8.996a.983.983 0 0 1-.04-1.305l2.03-2.439h-2.65c-3.507 0-6.362 2.863-6.362 6.37z" clip-rule="evenodd"/></svg>