<svg width="16" height="20" viewBox="0 0 16 20" fill="none" xmlns="http://www.w3.org/2000/svg">
<path d="M15.6738 19.2605C15.7721 19.2075 15.8543 19.1287 15.9118 19.0322C15.9692 18.9358 15.9997 18.8254 16 18.7128L16 16.9335C15.9998 16.8313 15.9747 16.7307 15.927 16.6406C15.8792 16.5505 15.8102 16.4737 15.7262 16.417L8.34154 11.4386C8.24041 11.3704 8.12157 11.334 8 11.334C7.87843 11.334 7.75959 11.3704 7.65846 11.4386L0.273846 16.417C0.189763 16.4737 0.120793 16.5505 0.0730317 16.6406C0.0252701 16.7307 0.000187388 16.8313 2.44764e-07 16.9335L3.2254e-07 18.7128C0.000206157 18.8254 0.030597 18.9358 0.0879362 19.0323C0.145275 19.1287 0.227416 19.2077 0.32561 19.2607C0.423804 19.3137 0.534376 19.3388 0.645549 19.3332C0.756722 19.3277 0.864333 19.2918 0.956924 19.2293L8 14.4812L15.0431 19.2293C15.1339 19.2888 15.2386 19.3229 15.3466 19.3284C15.4547 19.3339 15.5622 19.3104 15.6585 19.2605L15.6738 19.2605Z" fill="white"/>
<path d="M15.6738 12.5931C15.7721 12.5402 15.8543 12.4614 15.9118 12.3649C15.9692 12.2685 15.9997 12.1581 16 12.0455L16 5.59954C15.9998 5.49732 15.9747 5.39673 15.927 5.30664C15.8792 5.21656 15.8102 5.13976 15.7262 5.08303L8.34154 0.104639C8.24041 0.0364111 8.12157 -3.55005e-07 8 -3.49691e-07C7.87843 -3.44377e-07 7.75959 0.0364111 7.65846 0.104639L0.273846 5.08303C0.189763 5.13976 0.120793 5.21656 0.0730317 5.30664C0.0252701 5.39673 0.000187388 5.49732 2.44764e-07 5.59954L5.26526e-07 12.0455C0.000206361 12.1581 0.0305972 12.2685 0.0879364 12.3649C0.145276 12.4614 0.227416 12.5404 0.32561 12.5934C0.423805 12.6464 0.534376 12.6714 0.645549 12.6659C0.756722 12.6604 0.864333 12.6245 0.956924 12.562L8 7.81389L15.0431 12.562C15.1339 12.6214 15.2386 12.6556 15.3466 12.6611C15.4547 12.6665 15.5622 12.6431 15.6585 12.5931L15.6738 12.5931Z" fill="white"/>
</svg>
