<svg width="16" height="12" viewBox="0 0 16 12" fill="none" xmlns="http://www.w3.org/2000/svg">
<path d="M15.7665 5.47191L11.0145 0.703906C10.8758 0.554572 10.7025 0.479906 10.4945 0.479906C10.2865 0.479906 10.1105 0.554572 9.96648 0.703906C9.82248 0.853239 9.75048 1.02924 9.75048 1.23191C9.75048 1.43457 9.81981 1.61057 9.95848 1.75991L13.4465 5.24791H0.742479C0.539812 5.24791 0.363812 5.31991 0.214479 5.46391C0.0651452 5.60791 -0.00952148 5.78391 -0.00952148 5.99191C-0.00952148 6.19991 0.0624785 6.37591 0.206479 6.51991C0.350479 6.66391 0.529145 6.73591 0.742479 6.73591H13.4465L9.95848 10.2399C9.81981 10.3786 9.75048 10.5492 9.75048 10.7519C9.75048 10.9546 9.82248 11.1306 9.96648 11.2799C10.1105 11.4292 10.2838 11.5039 10.4865 11.5039C10.6891 11.5039 10.8651 11.4292 11.0145 11.2799L15.7665 6.52791C15.9158 6.37857 15.9905 6.19991 15.9905 5.99191C15.9905 5.78391 15.9158 5.61057 15.7665 5.47191Z" fill="#1B2A41"/>
</svg>
