<svg width="49" height="30" viewBox="0 0 49 30" fill="none" xmlns="http://www.w3.org/2000/svg">
<path d="M36.9409 14.6285L36.9407 14.6283L31.921 9.36503L31.9208 9.36482C31.7758 9.20167 31.5949 9.12024 31.3775 9.12024C31.16 9.12024 30.9762 9.20169 30.8256 9.36493C30.6748 9.5283 30.5995 9.72064 30.5995 9.94234C30.5995 10.1641 30.6721 10.3564 30.8171 10.5198C30.8172 10.5198 30.8172 10.5198 30.8172 10.5199L34.5016 14.3699L34.5145 14.3835H34.4958H0.794366C0.582521 14.3835 0.39862 14.462 0.242298 14.6195C0.0860805 14.777 0.008 14.9692 0.008 15.1967C0.008 15.4244 0.0833281 15.6167 0.233949 15.7741C0.384511 15.9314 0.571137 16.01 0.794366 16.01H34.4958H34.5144L34.5016 16.0235L30.8171 19.8915L30.817 19.8915C30.6721 20.043 30.5995 20.2294 30.5995 20.4511C30.5995 20.6728 30.6748 20.8652 30.8256 21.0286C30.9763 21.1918 31.1573 21.2732 31.369 21.2732C31.5808 21.2732 31.7646 21.1918 31.921 21.0285L36.9407 15.7829C37.097 15.6195 37.1751 15.4243 37.1751 15.1967C37.1751 14.9692 37.097 14.78 36.9409 14.6285Z" fill="#1B74BA" stroke="#1B74BA" stroke-width="0.016"/>
<path d="M24 5.41241C26.53 2.69767 30.1372 1 34.1408 1C41.795 1 48 7.20495 48 14.8592C48 22.5134 41.795 28.7183 34.1408 28.7183C30.1372 28.7183 26.53 27.0206 24 24.3059" stroke="#1B74BA" stroke-width="2" stroke-linecap="round"/>
</svg>
