<svg width="58" height="52" viewBox="0 0 58 52" fill="none" xmlns="http://www.w3.org/2000/svg">
<path fill-rule="evenodd" clip-rule="evenodd" d="M19.7874 40.4654C19.6487 40.4654 19.5019 40.4328 19.3632 40.3676L15.1138 38.3366L19.7874 48.6137L24.4691 38.3366L20.2115 40.3676C20.081 40.4328 19.9342 40.4654 19.7874 40.4654ZM34.2323 50.0084H37.6091V43.6383C37.6091 41.0772 36.092 38.8668 33.9061 37.8554C33.8571 37.8391 33.8163 37.8228 33.7756 37.7983C32.9925 37.4557 32.1361 37.2681 31.2389 37.2681H28.5881L30.619 39.7069C30.9453 40.0902 30.9208 40.653 30.5783 41.0119L22.0793 50.0084H32.079V44.6904C32.079 44.144 32.5195 43.7035 33.066 43.7035C33.6043 43.7035 34.0447 44.144 34.0447 44.6904V50.0084H34.2323ZM56.0262 46.5909V30.5391H49.3869V37.8554C49.3869 38.2469 49.1503 38.6058 48.7914 38.7608C48.4326 38.9157 48.0084 38.8423 47.723 38.565L45.6186 36.5504L43.5306 38.565C43.343 38.7444 43.0983 38.8423 42.8536 38.8423C42.7231 38.8423 42.5926 38.8179 42.4621 38.7608C42.1032 38.6058 41.8667 38.2469 41.8667 37.8554V30.5391H35.2274V36.3138C37.813 37.7331 39.5829 40.4818 39.5829 43.6383V46.5909H56.0262ZM47.4212 30.5391H43.8324V35.539L44.9335 34.4787C45.1292 34.2992 45.3739 34.2013 45.6186 34.2013C45.8633 34.2013 46.108 34.2911 46.3038 34.4787L47.4212 35.5471V30.5391ZM33.2535 35.5471V29.5522C33.2535 29.0057 33.694 28.5653 34.2405 28.5653H57.0131C57.5596 28.5653 58 29.0057 58 29.5522V50.9953C58 51.5418 57.5596 51.9822 57.0131 51.9822H0.986922C0.440444 51.9822 0 51.5418 0 50.9953V43.6383C0 39.0462 3.74378 35.3025 8.33582 35.3025H12.2998L13.1481 31.4526C11.9817 30.5147 11.1008 29.2504 10.7419 27.6436L9.7224 23.0516C9.1433 22.0239 5.90522 15.8413 7.70778 10.1237C7.78118 9.87087 8.3195 8.08462 9.82028 6.29838C11.2803 4.56107 13.98 2.48119 18.5068 2.48119C19.2572 2.48119 20.0402 2.53829 20.8314 2.65248C21.4431 2.6851 26.8753 3.15002 29.5261 6.91011C30.1052 6.98351 31.0187 7.25267 31.7446 8.19066C33.066 9.91165 33.1312 13.109 31.9322 17.6928C31.5733 19.006 30.7088 21.9831 29.836 23.1413L28.8409 27.6436C28.4821 29.2504 27.6012 30.5147 26.4267 31.4526L27.2749 35.3025H31.2389C31.9322 35.3025 32.6092 35.384 33.2535 35.5471ZM39.5829 50.0084H56.0262V48.5566H39.5829V50.0084ZM47.2988 22.6682H43.9629C43.4898 22.6682 43.082 22.3338 42.9923 21.8689L42.4784 19.1936C41.728 18.9 41.0347 18.5003 40.4067 17.9946L37.8293 18.8918C37.3888 19.0468 36.8913 18.8592 36.6548 18.4514L34.9909 15.564C34.7543 15.1562 34.8359 14.6342 35.1948 14.3243L37.2502 12.5462C37.2012 12.1465 37.1686 11.7468 37.1686 11.3472C37.1686 10.9475 37.2012 10.5397 37.2502 10.1482L35.1948 8.36194C34.8359 8.052 34.7543 7.53815 34.9909 7.13033L36.6548 4.24297C36.8913 3.82699 37.3888 3.64755 37.8293 3.80253L40.4067 4.69157C41.0347 4.19403 41.728 3.79437 42.4784 3.49258L42.9923 0.817292C43.082 0.360534 43.4898 0.026123 43.9629 0.026123H47.2988C47.7637 0.026123 48.1716 0.360534 48.2613 0.817292L48.7751 3.49258C49.5255 3.79437 50.2188 4.19403 50.855 4.69157L53.4243 3.80253C53.8729 3.64755 54.3623 3.82699 54.5988 4.24297L56.2708 7.13033C56.4992 7.53815 56.4177 8.052 56.0588 8.36194L54.0034 10.1482C54.0605 10.5397 54.0849 10.9475 54.0849 11.3472C54.0849 11.7468 54.0605 12.1465 54.0034 12.5462L56.0588 14.3243C56.4177 14.6342 56.4992 15.1562 56.2708 15.564L54.5988 18.4514C54.3623 18.8592 53.8729 19.0468 53.4243 18.8918L50.855 17.9946C50.2188 18.5003 49.5255 18.9 48.7751 19.1936L48.2613 21.8689C48.1716 22.3338 47.7637 22.6682 47.2988 22.6682ZM44.7704 20.6944H46.4832L46.9481 18.2719C47.0134 17.9212 47.2744 17.6357 47.6169 17.5216C48.4978 17.2442 49.289 16.7793 49.9823 16.1513C50.2514 15.9147 50.6266 15.8332 50.9692 15.9555L53.3019 16.763L54.1583 15.2785L52.2905 13.6636C52.0214 13.4352 51.899 13.0682 51.9724 12.7174C52.0703 12.2688 52.1192 11.8039 52.1192 11.3472C52.1192 10.8823 52.0703 10.4255 51.9724 9.9769C51.899 9.62618 52.0132 9.25914 52.2905 9.02261L54.1583 7.40764L53.3019 5.93134L50.9692 6.73882C50.6266 6.85301 50.2514 6.7796 49.9823 6.53491C49.2971 5.90687 48.4978 5.45011 47.6169 5.16464C47.2744 5.05861 47.0134 4.76498 46.9481 4.41425L46.4832 1.99181H44.7704L44.3054 4.41425C44.2402 4.76498 43.9873 5.05861 43.6448 5.16464C42.7557 5.45011 41.9646 5.90687 41.2713 6.53491C41.0021 6.7796 40.6269 6.85301 40.2843 6.73882L37.9516 5.93134L37.1034 7.40764L38.963 9.02261C39.2403 9.25914 39.3627 9.62618 39.2811 9.9769C39.1914 10.4255 39.1425 10.8823 39.1425 11.3472C39.1425 11.8039 39.1914 12.2688 39.2811 12.7174C39.3627 13.0682 39.2403 13.4352 38.963 13.6636L37.1034 15.2785L37.9516 16.763L40.2843 15.9555C40.6269 15.8332 41.0021 15.9147 41.2713 16.1513C41.9646 16.7793 42.7557 17.2442 43.6448 17.5216C43.9873 17.6357 44.2402 17.9212 44.3054 18.2719L44.7704 20.6944ZM45.6268 15.6864C43.237 15.6864 41.2876 13.737 41.2876 11.3472C41.2876 8.9492 43.237 6.99983 45.6268 6.99983C48.0247 6.99983 49.966 8.9492 49.966 11.3472C49.966 13.737 48.0247 15.6864 45.6268 15.6864ZM45.6268 8.97367C44.3218 8.97367 43.2533 10.034 43.2533 11.3472C43.2533 12.6522 44.3218 13.7207 45.6268 13.7207C46.9318 13.7207 48.0003 12.6522 48.0003 11.3472C48.0003 10.034 46.9318 8.97367 45.6268 8.97367ZM27.9519 22.5703C28.009 20.8249 27.7888 16.2002 26.0596 14.3977C25.6029 13.9164 25.0645 13.6799 24.4283 13.6799C24.0858 13.6799 23.7106 13.7451 23.3028 13.8838C22.6339 14.2672 18.9391 16.2981 14.7794 16.3307C14.4857 16.3797 12.9279 16.7222 12.0388 18.0354C11.3129 19.0957 11.1661 20.5639 11.5902 22.4072C11.6065 22.4562 11.6228 22.5051 11.631 22.554L12.6587 27.2195C12.9523 28.5163 13.7435 29.5114 14.7957 30.221H14.8038C16.1986 31.159 18.0419 31.5995 19.7874 31.5995C22.8542 31.5995 26.2472 30.2455 26.916 27.2195L27.9519 22.5703ZM24.4283 11.7142C25.6192 11.7142 26.6469 12.1547 27.487 13.0355C28.7512 14.3569 29.363 16.5102 29.6566 18.4595C29.7952 18.0272 29.9176 17.6031 30.0318 17.1871C31.3857 11.9915 30.7088 10.0748 30.1868 9.3978C29.8197 8.93289 29.3874 8.85948 29.159 8.85948H29.1183C28.7104 8.93289 28.3516 8.74529 28.1395 8.39457C26.0678 4.94442 20.7335 4.61816 20.6846 4.61001C20.6519 4.61001 20.6275 4.61001 20.5949 4.60185C19.8771 4.50397 19.1756 4.44688 18.5068 4.44688C11.3618 4.44688 9.67346 10.4092 9.60821 10.662C9.60006 10.6702 9.60006 10.6947 9.5919 10.7028C8.79257 13.2231 9.17592 15.9392 9.80396 18.0925C9.96709 17.6684 10.171 17.2687 10.4239 16.9017C11.9165 14.7321 14.4613 14.3813 14.5673 14.365C14.6081 14.365 14.6489 14.3569 14.6978 14.3569C18.6781 14.3569 22.3403 12.1628 22.3811 12.1383C22.4382 12.1057 22.5034 12.0731 22.5687 12.0486C23.2212 11.8284 23.8411 11.7142 24.4283 11.7142ZM19.7874 33.5651C18.1479 33.5651 16.4351 33.2307 14.9262 32.5374L14.2247 35.7347L19.7874 38.3856L25.3582 35.7347L24.6567 32.5374C23.1478 33.2307 21.4268 33.5651 19.7874 33.5651ZM12.8463 38.1164L11.0274 40.2942L16.4433 46.0199L12.8463 38.1164ZM23.1396 46.0199L28.5473 40.2942L26.7366 38.1246L23.1396 46.0199ZM1.97384 50.0084H5.53002V44.6904C5.53002 44.144 5.97047 43.7035 6.51695 43.7035C7.06342 43.7035 7.50387 44.144 7.50387 44.6904V50.0084H17.5036L8.99648 41.0119C8.65392 40.653 8.6376 40.0902 8.9557 39.7069L10.9866 37.2681H8.33582C4.82858 37.2681 1.97384 40.131 1.97384 43.6383V50.0084Z" fill="#1B74BA"/>
</svg>
