<svg width="58" height="52" viewBox="0 0 58 52" fill="none" xmlns="http://www.w3.org/2000/svg">
<path d="M48.0678 46.3777C53.0447 46.3777 57.0938 42.3287 57.0938 37.3518C57.0938 32.3748 53.0447 28.3259 48.0678 28.3259C47.2933 28.3259 46.5414 28.4241 45.8235 28.6085V14.391C45.8235 10.1127 42.3428 6.63198 38.0645 6.63198H36.3133C34.5714 3.10814 30.939 0.678711 26.7494 0.678711C22.5597 0.678711 18.9274 3.10814 17.1854 6.63198H15.4341C11.1557 6.63198 7.67503 10.1127 7.67503 14.391V32.1067H3.61288C2.63266 32.1067 1.83527 32.9042 1.83527 33.8843V38.1677C1.83527 39.1479 2.63277 39.9454 3.61288 39.9454H6.58561V49.5086H1.8125C1.57215 49.5086 1.34164 49.6041 1.17168 49.774C1.00173 49.944 0.90625 50.1745 0.90625 50.4148C0.90625 50.6552 1.00173 50.8857 1.17168 51.0557C1.34164 51.2256 1.57215 51.3211 1.8125 51.3211H51.7444C51.9847 51.3211 52.2152 51.2256 52.3852 51.0557C52.5552 50.8857 52.6506 50.6552 52.6506 50.4148C52.6506 50.1745 52.5552 49.944 52.3852 49.774C52.2152 49.6041 51.9847 49.5086 51.7444 49.5086H46.9782V46.3095C47.3397 46.3541 47.7036 46.3769 48.0678 46.3777ZM55.2812 37.3518C55.2812 41.3292 52.0454 44.5652 48.0678 44.5652C44.0903 44.5652 40.8544 41.3293 40.8544 37.3518C40.8544 33.3743 44.0903 30.1384 48.0678 30.1384C52.0453 30.1384 55.2812 33.3744 55.2812 37.3518ZM21.2886 32.1066H10.3275C13.0377 26.7248 18.1674 23.0555 24.072 22.1961L21.1709 31.318C21.1291 31.4497 21.1179 31.5892 21.1383 31.7259C21.1587 31.8626 21.2101 31.9928 21.2886 32.1066ZM23.7001 32.1066L23.0541 31.377L26.0311 22.0163C26.268 22.0072 26.5058 22.0024 26.7443 22.0023H26.7532C26.9921 22.0023 27.2303 22.0085 27.468 22.018L30.4445 31.3769L29.7983 32.1064L23.7001 32.1066ZM32.3276 31.3181L29.4287 22.2032C34.6458 22.9789 39.352 25.987 42.2334 30.4732C41.6673 30.9542 41.1621 31.5028 40.7294 32.1067H32.2098C32.2883 31.9929 32.3397 31.8627 32.3602 31.7261C32.3806 31.5894 32.3695 31.4498 32.3276 31.3181ZM38.0645 8.44448C41.3435 8.44448 44.011 11.112 44.011 14.391V29.2929C43.9148 29.3415 43.819 29.3905 43.7249 29.4424C42.0111 26.7911 39.6904 24.5606 36.9633 22.9591C35.3072 21.9866 33.5215 21.2628 31.667 20.7985C35.0775 19.0179 37.4112 15.447 37.4112 11.3406C37.4119 10.3614 37.2773 9.38685 37.0114 8.44448H38.0645ZM26.7494 2.4911C31.629 2.4911 35.5989 6.46093 35.5989 11.3405C35.5989 16.2193 31.6304 20.1885 26.752 20.1899H26.7463C21.8682 20.1881 17.9 16.2191 17.9 11.3406C17.9 6.46093 21.8699 2.4911 26.7494 2.4911ZM15.4341 8.44448H16.4874C16.2214 9.38685 16.0869 10.3614 16.0875 11.3406C16.0875 15.444 18.4181 19.0129 21.8245 20.7947C19.5403 21.3666 17.3676 22.3376 15.393 23.6823C12.9844 25.3225 10.9809 27.4385 9.48753 29.8941V14.391C9.48753 11.112 12.1552 8.44448 15.4341 8.44448ZM3.64777 33.9191H39.7218C39.2722 35.0076 39.0411 36.174 39.0419 37.3518C39.0419 37.6152 39.0556 37.8753 39.078 38.133H3.64777V33.9191ZM45.1657 49.5087H8.39811V39.9455H39.4235C40.2624 42.7362 42.4179 44.9605 45.1657 45.8963V49.5087ZM42.712 35.7192C41.8003 36.631 41.8003 38.1146 42.712 39.0266L44.94 41.2546C45.4072 41.7217 45.982 42.0277 46.5584 42.1161C46.6775 42.1343 46.7958 42.1434 46.9125 42.1434C47.5082 42.1434 48.0663 41.9081 48.5117 41.4627L53.4237 36.5508C54.3355 35.6389 54.3354 34.1552 53.4237 33.2433C52.5117 32.3315 51.0282 32.3318 50.1163 33.2433L46.8301 36.5296L46.0196 35.7191C45.1076 34.8073 43.6239 34.8072 42.712 35.7192ZM43.9937 37.0008C44.1953 36.7992 44.5362 36.7991 44.7378 37.0009L46.1892 38.4522C46.3592 38.6221 46.5896 38.7176 46.83 38.7176C47.0703 38.7176 47.3008 38.6221 47.4707 38.4522L51.3977 34.5252C51.5994 34.3236 51.9402 34.3234 52.142 34.5252C52.3436 34.7269 52.3436 35.0677 52.142 35.2694L47.23 40.1812C47.1042 40.307 46.989 40.3487 46.8331 40.3247C46.641 40.2952 46.4123 40.1638 46.2217 39.973L43.9937 37.7451C43.7919 37.5433 43.7919 37.2025 43.9937 37.0008Z" fill="#1B74BA"/>
</svg>
