<svg width="58" height="58" viewBox="0 0 58 58" fill="none" xmlns="http://www.w3.org/2000/svg">
<path d="M0.794924 8.44826C1.12231 8.7753 1.66753 8.7753 1.99491 8.44826L2.71492 7.72836L3.43482 8.44826C4.20218 9.21562 5.41905 8.03229 4.63446 7.24816L3.91456 6.52871L4.63446 5.8087C5.3854 5.05776 4.2194 3.82402 3.43482 4.60872L2.71492 5.32862L1.99491 4.60872C1.24397 3.85823 0.00988761 5.02378 0.794924 5.8087L1.51482 6.52871L0.794924 7.24816C0.635945 7.40739 0.546652 7.6232 0.546652 7.84821C0.546652 8.07321 0.635945 8.28903 0.794924 8.44826ZM7.58248 17.8938C7.90987 18.2214 8.45508 18.2214 8.78213 17.8938L9.50203 17.1739L10.2219 17.8939C10.9897 18.6612 12.2062 17.4784 11.422 16.6943L10.7021 15.9744L11.422 15.2544C12.1725 14.5039 11.007 13.2697 10.2219 14.0547L9.50203 14.7748L8.78201 14.0547C8.03153 13.3038 6.79733 14.4698 7.58237 15.2544L8.30238 15.9744L7.58237 16.6943C7.50356 16.7731 7.44103 16.8666 7.39838 16.9695C7.35572 17.0724 7.33376 17.1827 7.33376 17.2941C7.33376 17.4055 7.35572 17.5159 7.39838 17.6188C7.44103 17.7217 7.50356 17.8152 7.58237 17.8939L7.58248 17.8938ZM57.1241 25.8196C57.0454 25.7408 56.952 25.6782 56.849 25.6355C56.7461 25.5928 56.6358 25.5708 56.5244 25.5708C56.413 25.5708 56.3027 25.5927 56.1997 25.6353C56.0968 25.6779 56.0033 25.7404 55.9245 25.8192L55.2046 26.5391L54.4847 25.8192C53.7337 25.0687 52.4996 26.2342 53.2846 27.0193L54.0045 27.7392L53.2846 28.4587C52.5005 29.2429 53.7173 30.4261 54.4847 29.6587L55.2046 28.9388L55.9246 29.6587C56.6919 30.4261 57.9087 29.2429 57.1243 28.4587L56.4042 27.7392L57.1241 27.0193C57.203 26.9405 57.2655 26.847 57.3081 26.7441C57.3508 26.6412 57.3728 26.5309 57.3728 26.4195C57.3728 26.3081 57.3508 26.1977 57.3081 26.0948C57.2655 25.9919 57.203 25.8984 57.1241 25.8196ZM0.794924 29.6587C1.12231 29.9862 1.66753 29.9862 1.99491 29.6587L2.71492 28.9388L3.43482 29.6587C4.20218 30.4261 5.41905 29.2432 4.63446 28.4591L3.91456 27.7392L4.63446 27.0193C5.3854 26.2688 4.2194 25.0346 3.43482 25.8196L2.71492 26.5395L1.99491 25.8196C1.24397 25.069 0.00988761 26.2347 0.794924 27.0193L1.51482 27.7392L0.794924 28.4592C0.635972 28.6183 0.546691 28.8341 0.546691 29.059C0.546691 29.284 0.635972 29.4996 0.794924 29.6587ZM47.0073 31.385H39.6754C39.8624 30.8581 40.0096 30.3179 40.1157 29.7689H40.6794C42.3384 29.7689 43.6881 28.4193 43.6881 26.7603C43.6881 26.1909 43.5288 25.6576 43.2526 25.2027V18.9343C43.2526 13.583 40.2958 8.90976 35.931 6.46052C35.6573 2.85286 32.6365 0 28.9597 0C25.2852 0 22.2656 2.84924 21.989 6.45395C21.3567 6.80827 20.7521 7.2097 20.1801 7.65484C19.3167 8.3275 20.3602 9.66648 21.2231 8.99348C23.4272 7.27569 26.1653 6.3384 28.9597 6.3384C35.8185 6.3384 41.5561 12.0808 41.5561 18.9343V23.8824C41.1547 23.7602 40.7374 23.7412 40.3214 23.7518V22.1376C40.4706 21.6362 40.0967 21.0893 39.5726 21.0494C35.1991 20.7185 33.3737 17.9192 32.7975 16.7505C33.9728 15.6902 35.1164 14.4229 36.1623 12.9029C36.7828 12.0012 35.3844 11.0391 34.7644 11.9409C31.1626 17.1745 24.9326 20.7007 18.5021 20.587C17.9578 20.5618 17.5981 21.0472 17.5981 21.5526V23.7518C17.1821 23.7412 16.7648 23.7602 16.3634 23.8823V18.9342C16.3634 16.5349 17.0405 14.2017 18.3211 12.187C18.9083 11.2635 17.4763 10.3533 16.8892 11.2768C15.4351 13.564 14.667 16.212 14.667 18.9343V25.2027C14.3812 25.6719 14.2303 26.2109 14.231 26.7603C14.231 28.4193 15.5807 29.7691 17.2396 29.7691H17.8034C17.9098 30.3177 18.057 30.8577 18.2437 31.3844H10.9123C8.71835 31.3844 6.93112 33.155 6.90189 35.3423H6.52082C6.35696 35.3422 6.1966 35.3897 6.05911 35.4788C5.92161 35.5679 5.81286 35.695 5.74598 35.8445L0.0736647 48.5399C0.00944023 48.6839 -0.0134393 48.8429 0.00758828 48.9991C0.0286158 49.1554 0.0927201 49.3027 0.192723 49.4245L3.44207 53.3792C3.36368 53.4358 3.28755 53.4964 3.21675 53.5649C2.83534 53.9363 2.6252 54.4314 2.6252 54.9598L2.62565 56.0394C2.62611 57.1196 3.51899 57.9981 4.61645 57.9984L10.9354 57.9998H10.9358C10.9421 57.9998 10.9486 57.9989 10.9549 57.9989C10.9611 57.9989 10.9669 57.9998 10.973 57.9998H38.5754C39.6697 57.9998 39.6697 56.3028 38.5754 56.3028H12.9071C12.9187 56.216 12.9266 56.1288 12.9266 56.04L12.9262 54.9602C12.9262 54.3119 12.6032 53.7376 12.1085 53.381L15.3564 49.4271C15.4564 49.3053 15.5205 49.158 15.5415 49.0018C15.5624 48.8455 15.5394 48.6865 15.475 48.5426L14.7941 47.0199C14.3475 46.0208 12.7983 46.7133 13.2453 47.7124L13.7117 48.7558L10.3039 52.9044L5.24788 52.9035L1.83756 48.7529L6.92342 37.3688L6.92523 45.091C6.14733 45.4171 5.60924 46.2011 5.60958 47.0486C5.60958 48.2222 6.58097 49.1766 7.77438 49.1766C8.93234 49.1766 9.93861 48.2168 9.93861 47.0486C9.93816 46.1716 9.3952 45.4167 8.62229 45.0914L8.62047 37.3702L11.4242 43.64C11.8706 44.6388 13.4198 43.9462 12.9728 42.9475L9.79701 35.8448C9.73016 35.6953 9.62146 35.5684 9.48404 35.4793C9.34662 35.3903 9.18636 35.343 9.02262 35.343L8.60008 35.3426C8.62886 34.0912 9.6536 33.0818 10.9121 33.0818H47.0071C48.2833 33.0818 49.3218 34.1204 49.3218 35.3966V53.9883C49.3218 55.2645 48.2833 56.3031 47.0071 56.3031H43.7786C42.6844 56.3031 42.6844 58 43.7786 58H47.0071C49.2192 58 51.0189 56.2004 51.0189 53.9884V35.3963C51.0189 33.1846 49.2192 31.385 47.0071 31.385H47.0073ZM23.8569 5.57602C24.4785 3.34178 26.5299 1.69695 28.9597 1.69695C31.3922 1.69695 33.4459 3.34575 34.0645 5.5844C32.4781 4.97597 30.7572 4.64145 28.9597 4.64145C27.1857 4.64145 25.467 4.96045 23.8569 5.57602ZM4.32249 56.0389L4.32203 54.9593C4.32203 54.8751 4.36406 54.8162 4.39952 54.7818C4.45782 54.726 4.53567 54.6954 4.61634 54.6964L10.9353 54.6978C11.0972 54.6978 11.2296 54.8159 11.2296 54.9606L11.23 56.0402C11.23 56.1243 11.1875 56.1832 11.1521 56.2178C11.1193 56.2491 11.0476 56.3027 10.9357 56.3027L4.61679 56.3013C4.45435 56.3013 4.32249 56.1835 4.32249 56.0389ZM8.11343 47.3455C8.02394 47.4323 7.90363 47.4796 7.77449 47.4796C7.51644 47.4796 7.3063 47.2862 7.3063 47.0481C7.3063 46.899 7.38673 46.7986 7.43465 46.7521C7.52403 46.6649 7.64433 46.6175 7.77359 46.6175C8.03153 46.6175 8.24178 46.8109 8.24178 47.049C8.24178 47.1981 8.16123 47.2986 8.11343 47.3455ZM40.6794 25.4486C41.4029 25.4486 41.9911 26.0373 41.9911 26.7602C41.9911 27.4837 41.4029 28.0723 40.6794 28.0723H40.3109C40.317 27.9152 40.3214 27.7581 40.3214 27.6002V25.4486H40.6794ZM17.2397 28.0721C16.5161 28.0721 15.928 27.484 15.928 26.7604C15.928 26.0369 16.5166 25.4489 17.2397 25.4489H17.5976V27.6004C17.5976 27.7583 17.6021 27.9153 17.6082 28.0721H17.2397ZM19.2946 27.6004V22.277C20.3791 22.2351 22.3753 22.0478 24.7555 21.3107C26.684 20.7133 29.0912 19.6711 31.4651 17.8586C32.31 19.3809 34.3676 22.0412 38.6245 22.6514V27.6004C38.6245 28.9176 38.3651 30.189 37.855 31.3851H20.0642C19.5539 30.189 19.2946 28.9181 19.2946 27.6004Z" fill="#1B74BA"/>
<path d="M28.9594 41.4156C28.3518 40.739 27.4704 40.3124 26.4921 40.3124C24.6636 40.3124 23.1759 41.8001 23.1759 43.6286C23.1764 44.3458 23.4091 45.0436 23.8392 45.6175C23.8733 45.6821 23.9158 45.7428 23.9666 45.7977L28.3359 50.5271C28.4154 50.6131 28.5119 50.6816 28.6192 50.7285C28.7265 50.7754 28.8423 50.7996 28.9594 50.7997C29.0764 50.7996 29.1921 50.7753 29.2993 50.7284C29.4065 50.6815 29.5029 50.613 29.5824 50.5271L33.9516 45.7977C34.0026 45.7428 34.0451 45.6821 34.0792 45.6175C34.5095 45.0437 34.7422 44.3458 34.7425 43.6286C34.7425 41.8002 33.2552 40.3124 31.4267 40.3124C30.448 40.3124 29.5665 40.739 28.9595 41.4156H28.9594ZM33.046 43.6286C33.0458 44.0098 32.911 44.3787 32.6653 44.6702C32.6406 44.6996 32.6179 44.7306 32.5973 44.7631L28.959 48.7009L25.3211 44.7631C25.3004 44.7306 25.2775 44.6996 25.2526 44.6702C25.0073 44.3785 24.8726 44.0097 24.8724 43.6286C24.8724 42.7356 25.5985 42.0094 26.4915 42.0094C27.3845 42.0094 28.1107 42.7356 28.1107 43.6286C28.1107 44.0971 28.4904 44.4768 28.959 44.4768C29.4277 44.4768 29.8073 44.0971 29.8073 43.6286C29.8073 42.7356 30.5339 42.0094 31.4264 42.0094C32.3194 42.0094 33.046 42.7356 33.046 43.6286ZM25.1185 23.1097C23.5091 23.1097 22.1992 24.4194 22.1992 26.0293C22.1992 27.1236 23.8963 27.1236 23.8963 26.0293C23.8963 25.3549 24.4446 24.8066 25.1186 24.8066C25.7924 24.8066 26.3411 25.3549 26.3411 26.0293C26.3411 27.1236 28.0377 27.1236 28.0377 26.0293C28.0377 24.4195 26.7283 23.1097 25.1185 23.1097ZM32.7998 23.1097C31.1901 23.1097 29.8807 24.4194 29.8807 26.0293C29.8807 27.1236 31.5776 27.1236 31.5776 26.0293C31.5776 25.3549 32.1259 24.8066 32.7999 24.8066C33.4739 24.8066 34.0226 25.3549 34.0226 26.0293C34.0226 27.1236 35.7191 27.1236 35.7191 26.0293C35.7191 24.4195 34.4098 23.1097 32.7998 23.1097ZM53.537 16.1982V15.0547C56.1906 13.695 57.8756 10.9957 57.8756 8.02962C57.8756 5.90696 57.0314 3.91254 55.4981 2.41429C53.9224 0.874804 51.8284 0.0529517 49.6018 0.106194C47.5073 0.154338 45.5364 0.994315 44.0522 2.47002C42.5637 3.9506 41.7345 5.90119 41.7173 7.96278C41.692 10.9576 43.3775 13.6835 46.0555 15.0547V16.1982C46.0555 16.993 46.4507 17.6966 47.056 18.1332V19.0107C47.056 20.3603 48.1697 21.4583 49.5384 21.4583H50.0544C51.4231 21.4583 52.5364 20.3603 52.5364 19.0107V18.1332C53.1418 17.6966 53.537 16.993 53.537 16.1982ZM43.4138 7.9774C43.4421 4.65147 46.2351 1.88142 49.6412 1.80269C49.6933 1.80133 49.7456 1.80087 49.7978 1.80087C51.505 1.80087 53.1028 2.44658 54.3122 3.62809C55.5158 4.80418 56.1787 6.36745 56.1787 8.02951C56.1787 10.5027 54.6777 12.7426 52.355 13.7365C52.2023 13.8017 52.072 13.9104 51.9805 14.049C51.889 14.1876 51.8403 14.3501 51.8404 14.5162V16.1981C51.8404 16.5857 51.5098 16.9008 51.1041 16.9008H50.6788V9.79918C50.9242 9.87732 51.1802 9.91732 51.4378 9.91778C52.8107 9.91778 53.9282 8.81635 53.9282 7.46276C53.9282 6.36847 52.2311 6.36847 52.2311 7.46276C52.2311 7.88088 51.8754 8.22118 51.4377 8.22118C51.0806 8.22118 50.7779 7.99371 50.6787 7.68264C50.7828 6.4839 48.9478 6.22902 48.9478 7.46276C48.9478 7.88088 48.5919 8.22118 48.1543 8.22118C47.7171 8.22118 47.3614 7.88088 47.3614 7.46276C47.3614 6.36847 45.6644 6.36847 45.6644 7.46276C45.6644 8.81647 46.7817 9.91778 48.1543 9.91778C48.4446 9.91778 48.723 9.86681 48.9822 9.77618V16.9009H48.4884C48.0826 16.9009 47.7521 16.5854 47.7521 16.1982V14.5163C47.7521 14.3502 47.7034 14.1877 47.6119 14.049C47.5204 13.9103 47.3902 13.8015 47.2374 13.7361C44.8939 12.7338 43.3929 10.4731 43.4138 7.9774ZM50.0539 19.7612H49.5385C49.1052 19.7612 48.753 19.4245 48.753 19.0107V18.5979H50.8394V19.0107C50.8394 19.425 50.4871 19.7612 50.0539 19.7612Z" fill="#1B74BA"/>
</svg>
