<svg width="54" height="54" viewBox="0 0 54 54" fill="none" xmlns="http://www.w3.org/2000/svg">
<path d="M43.5489 24.3872H47.0328C47.2638 24.3872 47.4853 24.2954 47.6486 24.1321C47.812 23.9688 47.9037 23.7472 47.9037 23.5162C47.9037 23.2852 47.812 23.0637 47.6486 22.9004C47.4853 22.737 47.2638 22.6453 47.0328 22.6453H43.5489C43.3179 22.6453 43.0964 22.737 42.933 22.9004C42.7697 23.0637 42.6779 23.2852 42.6779 23.5162C42.6779 23.7472 42.7697 23.9688 42.933 24.1321C43.0964 24.2954 43.3179 24.3872 43.5489 24.3872ZM31.3553 24.3872H34.8392C35.0702 24.3872 35.2917 24.2954 35.4551 24.1321C35.6184 23.9688 35.7102 23.7472 35.7102 23.5162C35.7102 23.2852 35.6184 23.0637 35.4551 22.9004C35.2917 22.737 35.0702 22.6453 34.8392 22.6453H31.3553C31.1243 22.6453 30.9028 22.737 30.7395 22.9004C30.5761 23.0637 30.4844 23.2852 30.4844 23.5162C30.4844 23.7472 30.5761 23.9688 30.7395 24.1321C30.9028 24.2954 31.1243 24.3872 31.3553 24.3872ZM42.5316 29.5686C41.7861 30.6869 40.538 31.3549 39.1941 31.3549C37.8501 31.3549 36.6021 30.6869 35.8565 29.5686L35.5639 29.1296L34.1146 30.0955L34.4072 30.5345C35.4759 32.1388 37.2657 33.0969 39.1941 33.0969C41.1224 33.0969 42.9122 32.1388 43.9809 30.5354L44.2735 30.0964L42.8242 29.1305L42.5316 29.5686Z" fill="#1B74BA"/>
<path d="M54.0006 16.125C54.0006 10.1153 49.111 5.2257 43.1013 5.2257H37.2249C35.8313 5.22105 34.4685 5.63648 33.3145 6.41781C32.1605 7.19914 31.2686 8.3101 30.7554 9.6058C27.1931 9.91151 24.3877 12.9085 24.3877 16.5483V17.3147C24.3877 18.555 24.7309 19.7517 25.3519 20.8169C24.7579 21.5616 24.3877 22.4918 24.3877 23.516C24.3896 24.5259 24.7419 25.5039 25.3846 26.2829C26.0273 27.0619 26.9205 27.5936 27.9117 27.7873C28.254 31.9653 31.284 35.3864 35.2687 36.3201C34.2091 36.8648 33.3017 37.6647 32.6285 38.6478C31.9554 39.6308 31.5376 40.766 31.413 41.9509C31.3886 41.9588 31.3633 41.9649 31.3398 41.9736C31.3415 41.917 31.3555 41.863 31.3555 41.8063V40.0644H20.9039V27.8709H18.291C16.8504 27.8709 15.678 29.0432 15.678 30.4838V41.8063C15.678 43.7277 17.2406 45.2902 19.1619 45.2902H22.806C22.7029 45.5692 22.6487 45.8638 22.6458 46.1612C22.6458 48.5624 24.5994 50.516 27.0006 50.516L31.3555 50.5169V53.9999H43.549V48.6783C44.6655 47.5422 45.291 46.013 45.291 44.4201V39.1934C45.2906 38.6126 45.1735 38.0377 44.9467 37.503C44.7199 36.9683 44.3879 36.4846 43.9706 36.0806C47.5293 34.8874 50.1597 31.6631 50.4767 27.7873C51.4678 27.5936 52.361 27.0619 53.0037 26.2829C53.6464 25.5039 53.9988 24.5259 54.0006 23.516C54.0006 22.4482 53.5991 21.4823 52.9598 20.7237C53.6296 19.2857 54.0006 17.7136 54.0006 16.125ZM26.1297 16.5483C26.1297 13.6663 28.4734 11.3225 31.3555 11.3225H31.9451L32.3728 10.2529C32.7576 9.28106 33.4264 8.44774 34.292 7.86169C35.1575 7.27565 36.1796 6.96408 37.2249 6.96764H43.1013C48.1512 6.96764 52.2587 11.0751 52.2587 16.125C52.2587 17.3243 52.0105 18.5141 51.5541 19.6211C51.2008 19.4437 50.8248 19.3159 50.4366 19.2413C50.063 17.2172 48.2923 15.6773 46.1619 15.6773H32.2264C30.096 15.6773 28.3254 17.2172 27.9517 19.2413C27.5175 19.3254 27.0988 19.4762 26.7106 19.6881C26.3308 18.9545 26.1316 18.1408 26.1297 17.3147V16.5483ZM29.6135 21.7741C29.6135 21.2942 30.0046 20.9031 30.4845 20.9031H47.9039C48.3838 20.9031 48.7748 21.2942 48.7748 21.7741V25.258C48.7748 25.7379 48.3838 26.1289 47.9039 26.1289H42.8836C42.7218 26.1294 42.563 26.0846 42.4254 25.9995C42.2878 25.9143 42.1767 25.7923 42.1049 25.6473L41.234 23.9053C40.8455 23.1284 40.0643 22.6451 39.1942 22.6451C38.3241 22.6451 37.5428 23.1284 37.1544 23.9053L36.2834 25.6473C36.2116 25.7923 36.1006 25.9143 35.963 25.9995C35.8253 26.0846 35.6666 26.1294 35.5048 26.1289H30.4845C30.0046 26.1289 29.6135 25.7379 29.6135 25.258V21.7741ZM29.7363 19.284C29.8958 18.7468 30.2242 18.2753 30.6727 17.9395C31.1213 17.6036 31.6661 17.4212 32.2264 17.4193H46.1619C47.3412 17.4193 48.328 18.2092 48.652 19.284C48.4101 19.2062 48.1579 19.1648 47.9039 19.1612H30.4845C30.2223 19.1612 29.975 19.2117 29.7363 19.284ZM26.1297 23.516C26.1297 22.382 26.8604 21.424 27.8716 21.0634V25.9687C27.3636 25.7896 26.9235 25.4578 26.6116 25.0186C26.2997 24.5795 26.1314 24.0546 26.1297 23.516ZM36.61 37.61L36.9297 37.4898C36.7003 38.0285 36.5818 38.6079 36.5813 39.1934V41.8072H33.1714C33.3275 40.868 33.7271 39.9861 34.3305 39.2497C34.9339 38.5132 35.7199 37.9478 36.61 37.61ZM17.42 30.4838C17.42 30.0039 17.811 29.6128 18.291 29.6128H19.1619V40.0644H17.42V30.4838ZM17.42 41.8063H29.6135C29.6135 42.2714 29.4324 42.7095 29.104 43.0379C28.9425 43.2002 28.7504 43.3289 28.5389 43.4165C28.3274 43.5041 28.1006 43.5489 27.8716 43.5483H19.1619C18.2012 43.5483 17.42 42.767 17.42 41.8063ZM24.3877 46.1612C24.3877 45.6813 24.7788 45.2902 25.2587 45.2902H27.8716C28.4961 45.2902 29.0883 45.1143 29.6135 44.8086V47.9049C29.6135 48.2114 29.6762 48.5015 29.7738 48.775L27.0006 48.7741C25.56 48.7741 24.3877 47.6018 24.3877 46.1612ZM33.0974 52.258V50.5169H39.1942C40.0988 50.5156 40.9916 50.3118 41.8071 49.9203V52.258H33.0974ZM43.549 39.1934V44.4201C43.549 46.8214 41.5954 48.775 39.1942 48.775H32.2264C31.7465 48.775 31.3555 48.3839 31.3555 47.904V44.4201C31.3555 43.9402 31.7465 43.5492 32.2264 43.5492H36.9871L38.4695 45.7745L39.9188 44.8086L38.3241 42.4152L38.3232 39.1934C38.3232 38.4958 38.5949 37.8391 39.0879 37.3452C39.3285 37.1036 39.6143 36.9118 39.929 36.7807C40.2437 36.6497 40.5812 36.5819 40.9222 36.5814H40.9361C42.3767 36.5814 43.549 37.7529 43.549 39.1934ZM40.9361 34.8386H37.4522C33.3735 34.8386 30.0159 31.7066 29.6501 27.7219C29.914 27.8116 30.191 27.8709 30.4845 27.8709H35.5048C35.9903 27.8725 36.4665 27.738 36.8795 27.4828C37.2926 27.2276 37.6258 26.8617 37.8416 26.4268L38.7125 24.6849C38.8963 24.3182 39.492 24.3182 39.6749 24.6849L40.5459 26.4268C40.7619 26.8617 41.0953 27.2275 41.5085 27.4828C41.9216 27.738 42.398 27.8724 42.8836 27.8709H47.9039C48.1974 27.8709 48.4743 27.8116 48.7382 27.7219C48.3724 31.7066 45.0149 34.8386 40.9361 34.8386ZM50.5168 25.9687V21.0634C51.528 21.424 52.2587 22.382 52.2587 23.516C52.2587 24.65 51.528 25.6081 50.5168 25.9687ZM11.3232 4.35474C7.48137 4.35474 4.35547 7.48064 4.35547 11.3225C4.35547 15.1643 7.48137 18.2902 11.3232 18.2902C15.165 18.2902 18.291 15.1643 18.291 11.3225C18.291 7.48064 15.165 4.35474 11.3232 4.35474ZM11.3232 16.5483C8.44118 16.5483 6.0974 14.2045 6.0974 11.3225C6.0974 8.44045 8.44118 6.09667 11.3232 6.09667C14.2052 6.09667 16.549 8.44045 16.549 11.3225C16.549 14.2045 14.2052 16.5483 11.3232 16.5483Z" fill="#1B74BA"/>
<path d="M11.3218 7.83862C9.40041 7.83862 7.83789 9.40114 7.83789 11.3225C7.83789 13.2438 9.40041 14.8064 11.3218 14.8064C13.2431 14.8064 14.8056 13.2438 14.8056 11.3225C14.8056 9.40114 13.2431 7.83862 11.3218 7.83862ZM11.3218 13.0644C10.3611 13.0644 9.57983 12.2832 9.57983 11.3225C9.57983 10.3618 10.3611 9.58056 11.3218 9.58056C12.2824 9.58056 13.0637 10.3618 13.0637 11.3225C13.0637 12.2832 12.2824 13.0644 11.3218 13.0644Z" fill="#1B74BA"/>
<path d="M21.6122 17.0448L20.8841 15.5224C20.9442 15.3865 21.0016 15.2498 21.0548 15.1122L22.6452 14.5521V8.09303L21.0548 7.53126C21.0005 7.39345 20.9436 7.25668 20.8841 7.12103L21.6122 5.59858L17.0448 1.03297L15.5224 1.7611C15.387 1.70092 15.2502 1.644 15.1122 1.59039L14.5521 0H8.09303L7.53213 1.59039C7.39539 1.64439 7.25777 1.701 7.1219 1.7611L5.60032 1.03297L1.03297 5.60032L1.7611 7.12277C1.701 7.25777 1.64439 7.39539 1.59039 7.53213L0 8.09303V14.5513L1.59039 15.113C1.64439 15.2498 1.701 15.3865 1.7611 15.5233L1.03297 17.0448L5.60032 21.6122L7.12277 20.8841C7.25865 20.9442 7.39539 21.0016 7.533 21.0548L8.09303 22.6452H14.5513L15.113 21.0548C15.2498 21.0008 15.3865 20.9442 15.5233 20.8841L17.0457 21.6122L21.6122 17.0448ZM15.5233 18.9531L15.1444 19.1386C14.8204 19.2981 14.4867 19.4371 14.1454 19.555L13.7465 19.6917L13.3188 20.9032H9.32545L8.89781 19.6908L8.4989 19.5541C8.15771 19.4369 7.82433 19.2982 7.50077 19.1386L7.1219 18.9531L5.96003 19.5088L3.13635 16.6851L3.69203 15.5233L3.50652 15.1444C3.34691 14.8205 3.20786 14.4868 3.09019 14.1454L2.95345 13.7465L1.74194 13.3188V9.32545L2.95432 8.89781L3.09106 8.4989C3.20516 8.16532 3.34452 7.83 3.50652 7.50077L3.69203 7.1219L3.13635 5.96003L5.96003 3.13635L7.1219 3.69203L7.50077 3.50652C7.82471 3.34691 8.15837 3.20786 8.49977 3.09019L8.89868 2.95345L9.32632 1.74194H13.3197L13.7474 2.95432L14.1463 3.09106C14.4798 3.20516 14.816 3.34539 15.1453 3.50739L15.5241 3.6929L16.686 3.13723L19.5097 5.9609L18.954 7.12277L19.1395 7.50165C19.3015 7.83087 19.4409 8.16706 19.5558 8.50065L19.6926 8.89955L20.9032 9.32632V13.3197L19.6908 13.7474L19.5541 14.1463C19.4366 14.4877 19.2976 14.8214 19.1378 15.1453L18.9523 15.5241L19.5079 16.686L16.6843 19.5097L15.5233 18.9531ZM0 43.5484H13.9355V38.3226H0V43.5484ZM1.74194 40.0645H12.1935V41.8064H1.74194V40.0645ZM0 36.5806H13.9355V31.3548H0V36.5806ZM1.74194 33.0968H12.1935V34.8387H1.74194V33.0968ZM0 27.871H13.9355V29.6129H0V27.871ZM0 24.3871H1.74194V26.129H0V24.3871ZM3.48387 24.3871H13.9355V26.129H3.48387V24.3871ZM47.0323 38.3226H54V40.0645H47.0323V38.3226ZM52.2581 41.8064H54V43.5484H52.2581V41.8064ZM47.0323 41.8064H50.5161V43.5484H47.0323V41.8064ZM47.0323 45.2903H54V47.0323H47.0323V45.2903Z" fill="#1B74BA"/>
</svg>
