<svg width="58" height="58" viewBox="0 0 58 58" fill="none" xmlns="http://www.w3.org/2000/svg">
<g clip-path="url(#clip0_104_520)">
<path d="M27.3265 42.9211C26.8903 42.601 26.2764 42.6944 25.9558 43.1309L25.8347 43.2957C25.6809 43.5051 25.6165 43.767 25.6556 44.0239C25.6947 44.2808 25.8342 44.5116 26.0434 44.6658C26.2115 44.7901 26.4152 44.8572 26.6243 44.8571C26.7779 44.8573 26.9294 44.8214 27.0665 44.7522C27.2036 44.6831 27.3225 44.5826 27.4137 44.459L27.5366 44.2919C27.6905 44.0823 27.7548 43.8201 27.7154 43.563C27.676 43.306 27.5361 43.0751 27.3265 42.9211Z" fill="#1B74BA"/>
<path d="M27.5827 52.2501L25.0607 47.6642L27.4154 44.4572C27.4916 44.3534 27.5467 44.2356 27.5774 44.1106C27.6081 43.9855 27.6138 43.8556 27.5943 43.7283C27.5748 43.601 27.5304 43.4788 27.4637 43.3687C27.397 43.2585 27.3092 43.1626 27.2053 43.0864C27.1016 43.0102 26.9838 42.9551 26.8587 42.9244C26.7336 42.8937 26.6037 42.8879 26.4765 42.9075C26.3492 42.927 26.227 42.9714 26.1168 43.0381C26.0067 43.1049 25.9108 43.1927 25.8346 43.2965L23.1093 47.0082C22.9987 47.1589 22.9334 47.3381 22.9212 47.5246C22.909 47.7112 22.9504 47.8973 23.0405 48.0611L25.8643 53.1952V53.1951C25.9897 53.4229 26.2004 53.5917 26.4502 53.6642C26.6999 53.7367 26.9683 53.707 27.1962 53.5817C27.309 53.5196 27.4085 53.436 27.489 53.3355C27.5694 53.2349 27.6293 53.1196 27.6652 52.9959C27.7011 52.8723 27.7123 52.7428 27.6981 52.6148C27.684 52.4868 27.6447 52.3629 27.5827 52.2501ZM34.8914 47.0083L32.1771 43.3117C32.0223 43.1044 31.7918 42.9666 31.5358 42.9285C31.2799 42.8904 31.0192 42.955 30.8107 43.1082C30.6021 43.2614 30.4626 43.4908 30.4224 43.7464C30.3823 44.0021 30.4448 44.2632 30.5963 44.473L32.9394 47.6643L30.4347 52.219C30.3092 52.4469 30.2795 52.7153 30.352 52.9651C30.4244 53.215 30.5932 53.4258 30.8211 53.5512C31.049 53.6766 31.3173 53.7064 31.5672 53.6339C31.817 53.5614 32.0278 53.3927 32.1532 53.1648L34.9601 48.0615C35.0503 47.8976 35.0917 47.7115 35.0795 47.5249C35.0673 47.3383 35.002 47.159 34.8914 47.0083ZM36.4452 31.5979C36.287 31.5147 36.109 31.4764 35.9305 31.4871C35.7521 31.4978 35.58 31.557 35.4327 31.6585C34.8495 32.0603 34.3082 32.486 33.824 32.9236C31.185 35.3093 28.6778 34.9865 28.5796 34.9724C28.5205 34.9629 28.4606 34.959 28.4008 34.9607C27.3578 34.9875 25.4774 34.0344 23.488 32.4721C23.1869 32.2354 22.8775 32.0097 22.5602 31.7952C22.4128 31.6956 22.2409 31.638 22.0632 31.6286C21.8855 31.6192 21.7086 31.6584 21.5514 31.7419C21.3942 31.8255 21.2628 31.9502 21.1711 32.1027C21.0794 32.2553 21.031 32.4299 21.0311 32.6079V35.9719C21.0312 36.1365 21.0727 36.2985 21.1518 36.4429C21.2309 36.5873 21.3451 36.7094 21.4839 36.798L28.4372 41.4444C28.4383 41.4451 28.4393 41.446 28.4405 41.4468L28.4588 41.459C28.6194 41.5654 28.8078 41.622 29.0004 41.622C29.1975 41.622 29.39 41.5627 29.553 41.4519L29.563 41.4453C29.5668 41.4428 29.5707 41.4402 29.5745 41.4376L36.5114 36.8022C36.6518 36.7139 36.7674 36.5915 36.8476 36.4463C36.9277 36.3012 36.9698 36.138 36.9697 35.9722V32.4661C36.9698 32.2873 36.9209 32.1119 36.8285 31.9589C36.736 31.8058 36.6035 31.681 36.4452 31.5979ZM35.0084 35.4474L29.0003 39.4621L22.9923 35.4473V34.5554C24.4552 35.6186 26.6072 36.9225 28.3614 36.9224H28.3728C28.9618 36.9876 31.9652 37.1646 35.0086 34.4948V35.4474H35.0084Z" fill="#1B74BA"/>
<path d="M29.9668 40.4804C29.9351 40.2901 29.848 40.1135 29.7164 39.9725C29.5848 39.8315 29.4146 39.7324 29.227 39.6877C29.0394 39.6429 28.8428 39.6545 28.6617 39.721C28.4807 39.7874 28.3232 39.9058 28.2091 40.0612L25.9552 43.1313C25.8789 43.2351 25.8239 43.3529 25.7932 43.4779C25.7625 43.603 25.7567 43.7329 25.7762 43.8602C25.7958 43.9875 25.8402 44.1097 25.9069 44.2198C25.9737 44.33 26.0615 44.4259 26.1653 44.5021C26.3332 44.6258 26.5363 44.6925 26.7448 44.6924C26.899 44.6926 27.0509 44.6564 27.1885 44.5868C27.326 44.5172 27.4451 44.4161 27.5362 44.2918L29.7784 41.238C29.8601 41.1314 29.919 41.0091 29.9514 40.8788C29.9838 40.7484 29.989 40.6128 29.9668 40.4804ZM43.9391 8.86686C43.9196 8.71325 43.4603 5.39796 40.3396 4.09013C40.4302 3.50786 40.4207 2.75953 40.0511 2.03147C39.5542 1.05294 38.5738 0.415283 37.1368 0.135932C37.0752 0.123933 37.0126 0.117902 36.9498 0.11792H23.788C18.4436 0.11792 14.0955 4.46588 14.0955 9.81049V14.9751C14.0955 16.3207 14.5542 17.6328 15.3868 18.6695C15.7996 19.1836 16.308 20.0814 16.3847 21.4387C16.3987 21.6937 16.5119 21.9331 16.7 22.1059C16.888 22.2786 17.1362 22.371 17.3914 22.3634C17.6466 22.3562 17.8889 22.2498 18.0669 22.0667C18.2448 21.8837 18.3444 21.6385 18.3444 21.3832V14.6498C19.0102 11.896 21.2828 11.3601 21.6735 11.2877H25.9308C26.4316 11.2877 26.9241 11.2112 27.3947 11.0603C28.2042 10.8007 29.4885 10.3229 30.4235 9.96772C31.0503 9.72991 31.7409 9.72125 32.3735 9.94326L36.9312 11.5432C39.2097 12.3838 39.6164 14.3841 39.6668 14.6983V22.7795C39.6668 22.9083 39.6922 23.0359 39.7415 23.1549C39.7908 23.2739 39.8631 23.382 39.9543 23.473C40.0454 23.5641 40.1536 23.6362 40.2727 23.6854C40.3918 23.7346 40.5194 23.7598 40.6482 23.7596C40.8829 23.7592 41.1097 23.6747 41.2875 23.5214C41.4653 23.3682 41.5823 23.1563 41.6173 22.9242C41.6212 22.8989 42.0127 20.3697 43.2753 18.3446C43.7146 17.6397 43.9469 16.836 43.9469 16.0203V8.99067C43.9469 8.94933 43.9443 8.90798 43.9391 8.86686ZM41.9856 16.0199C41.9856 16.4579 41.862 16.8925 41.628 17.2789V14.6313C41.628 14.5958 41.626 14.5606 41.6222 14.5254C41.6068 14.383 41.2016 11.0224 37.6009 9.6997L37.5877 9.69494L33.023 8.09247C32.5117 7.91309 31.9737 7.82151 31.4319 7.82161C30.8532 7.82161 30.2749 7.92594 29.727 8.13438C28.4179 8.63169 27.4041 8.9977 26.7957 9.19277C26.5161 9.28196 26.2242 9.32709 25.9307 9.32655H21.5942C21.5521 9.32655 21.51 9.32927 21.4682 9.3346C21.3022 9.35612 17.391 9.91233 16.4067 14.3241C16.391 14.3942 16.3831 14.4658 16.3831 14.5376V16.5558C16.1676 16.0567 16.0564 15.5188 16.0565 14.9752V9.81072C16.0565 5.54772 19.5249 2.07938 23.7878 2.07938H36.8508C37.3916 2.19459 38.0488 2.43101 38.2982 2.912C38.6035 3.50072 38.2557 4.31137 38.2554 4.31204C38.1935 4.44377 38.1617 4.5876 38.1624 4.73312C38.163 4.87865 38.196 5.0222 38.259 5.15338C38.322 5.28456 38.4134 5.40007 38.5266 5.49153C38.6398 5.583 38.7719 5.64812 38.9134 5.68218C41.4099 6.28314 41.9191 8.67756 41.9855 9.06487L41.9856 16.0199Z" fill="#1B74BA"/>
<path d="M41.6238 14.5255C41.6083 14.3831 41.2031 11.0225 37.6025 9.6998L37.5892 9.69505L33.0246 8.09257C31.9553 7.7177 30.7879 7.73246 29.7284 8.13426C28.4194 8.63156 27.4056 8.99757 26.7972 9.19276C26.5175 9.28191 26.2257 9.327 25.9322 9.32643H21.5956C21.5536 9.32643 21.5115 9.32915 21.4697 9.33447C21.3037 9.356 17.3924 9.91221 16.4081 14.3239C16.3925 14.394 16.3846 14.4657 16.3846 14.5375V22.9674L16.3848 22.9892C16.3913 23.282 16.5985 30.1975 21.3767 33.3602L21.4014 33.3776C21.4219 33.3921 21.4424 33.4066 21.4638 33.421C21.7419 33.6092 22.0133 33.8072 22.2774 34.0147C23.6694 35.1078 26.2926 36.9226 28.362 36.9226H28.3735C28.4859 36.935 28.6865 36.9515 28.9586 36.9515C30.1314 36.9515 32.6335 36.6442 35.1398 34.3786C35.5604 33.9985 36.0333 33.6267 36.546 33.2735L36.6193 33.2222C36.6432 33.2053 36.6671 33.1883 36.6918 33.1718C38.2857 32.1013 41.0461 29.339 41.6257 22.8668C41.6283 22.8378 41.6296 22.8085 41.6296 22.7793V14.6314C41.6295 14.596 41.6275 14.5607 41.6238 14.5255ZM39.6682 22.735C39.1338 28.576 36.6452 30.8403 35.5982 31.5435C35.5611 31.5685 35.5244 31.5943 35.4877 31.6202L35.4333 31.6585C34.85 32.0603 34.3087 32.486 33.8246 32.9236C31.1954 35.3005 28.6963 34.9887 28.5738 34.9715C28.5167 34.9629 28.459 34.9594 28.4013 34.961C27.3584 34.9877 25.4779 34.0347 23.4886 32.4723C23.1843 32.2333 22.8723 32.0056 22.5612 31.7957L22.5371 31.7787C22.5125 31.761 22.4876 31.7437 22.4625 31.7269C18.6066 29.1748 18.3543 23.2025 18.3458 22.9533V14.6497C19.0141 11.8859 21.3006 11.3561 21.6733 11.2877H25.9323C26.4331 11.2877 26.9255 11.2112 27.3962 11.0603C28.2057 10.8007 29.4901 10.3229 30.425 9.96771C31.0518 9.7299 31.7424 9.72123 32.3749 9.94325L36.9327 11.5432C39.2112 12.3838 39.6179 14.3841 39.6683 14.6983V22.735H39.6682ZM29.878 40.2035C29.8028 40.0532 29.6903 39.9248 29.5513 39.8305C29.4122 39.7361 29.2513 39.6791 29.0839 39.6648C28.9165 39.6509 28.7483 39.68 28.5954 39.7494C28.4425 39.8189 28.3099 39.9264 28.2104 40.0617L25.8614 43.261C25.7075 43.4705 25.6432 43.7325 25.6824 43.9895C25.7217 44.2464 25.8613 44.4773 26.0707 44.6313C26.2387 44.7554 26.4421 44.8223 26.6509 44.8222C26.8047 44.8224 26.9564 44.7864 27.0936 44.7171C27.2309 44.6478 27.3499 44.5471 27.4411 44.4232L29.7902 41.2357C29.9144 41.0672 29.9815 40.8517 29.9815 40.6423C29.9815 40.49 29.946 40.3398 29.878 40.2035ZM29.9408 55.9924C29.7637 55.8072 29.5211 55.6986 29.265 55.6901C29.0089 55.6815 28.7596 55.7735 28.5705 55.9465L28.3463 56.1516C28.1832 56.3007 28.0753 56.5004 28.0401 56.7185C28.0048 56.9366 28.0442 57.1603 28.1519 57.3531L28.1588 57.3655C28.2327 57.4979 28.3363 57.6114 28.4614 57.697C28.5866 57.7826 28.7299 57.838 28.8801 57.8588C29.0303 57.8797 29.1832 57.8654 29.327 57.8172C29.4707 57.7689 29.6013 57.688 29.7085 57.5807L29.9257 57.3633C30.1069 57.1821 30.2099 56.9372 30.2128 56.681C30.2156 56.4247 30.118 56.1776 29.9408 55.9924Z" fill="#1B74BA"/>
<path d="M29.6547 56.1516L29.4305 55.9466C29.2413 55.7739 28.992 55.6821 28.736 55.6908C28.48 55.6994 28.2376 55.808 28.0605 55.9931C27.8835 56.1782 27.7859 56.4253 27.7887 56.6814C27.7914 56.9375 27.8943 57.1824 28.0753 57.3637L28.2928 57.5811C28.4004 57.6888 28.5316 57.7699 28.676 57.8181C28.8204 57.8663 28.9741 57.8801 29.1248 57.8586C29.2755 57.8371 29.4191 57.7808 29.5443 57.6941C29.6694 57.6074 29.7727 57.4928 29.8459 57.3593L29.8528 57.347C29.9584 57.1543 29.9962 56.9318 29.9603 56.715C29.9244 56.4983 29.8168 56.2999 29.6547 56.1516Z" fill="#1B74BA"/>
<path d="M29.6719 56.1669L29.6706 56.1658C29.4892 55.9961 29.2502 55.9016 29.0018 55.9013C28.7534 55.901 28.5142 55.995 28.3323 56.1642L28.3294 56.1669C28.2313 56.2564 28.1523 56.3649 28.0974 56.4858C28.0425 56.6067 28.0127 56.7375 28.0098 56.8703C28.0069 57.0031 28.0311 57.135 28.0808 57.2582C28.1304 57.3813 28.2046 57.4931 28.2988 57.5868L28.3091 57.5971C28.4927 57.7801 28.7414 57.8827 29.0006 57.8823C29.1293 57.8825 29.2569 57.8572 29.3758 57.8079C29.4948 57.7587 29.6029 57.6864 29.6939 57.5953L29.7042 57.585C29.7979 57.4912 29.8717 57.3794 29.921 57.2564C29.9703 57.1333 29.9942 57.0016 29.9911 56.869C29.9882 56.7365 29.9584 56.6059 29.9035 56.4852C29.8486 56.3645 29.7698 56.2562 29.6719 56.1669ZM29.3188 39.6928C28.9127 39.5627 28.467 39.7135 28.2197 40.0613C27.9431 40.4507 27.9887 40.9814 28.3258 41.32C28.4169 41.4116 28.5252 41.4841 28.6444 41.5336C28.7637 41.5831 28.8916 41.6084 29.0207 41.6082C29.2177 41.6082 29.4157 41.5493 29.5866 41.429C29.7152 41.3385 29.8202 41.2184 29.8926 41.0789C29.9651 40.9393 30.0029 40.7843 30.0029 40.6271V40.6247C30.0029 40.198 29.7253 39.8225 29.3188 39.6928Z" fill="#1B74BA"/>
<path d="M29.7968 40.0531L29.7885 40.0418C29.6658 39.8757 29.4939 39.7526 29.2972 39.69C29.1005 39.6274 28.889 39.6284 28.693 39.693C28.4969 39.7577 28.3262 39.8825 28.2053 40.0498C28.0843 40.2171 28.0193 40.4183 28.0193 40.6247V40.6415C28.0193 41.0025 28.222 41.3316 28.5401 41.5024C28.6822 41.5785 28.8409 41.6182 29.0021 41.618C29.1936 41.618 29.385 41.5625 29.5494 41.4535C29.6604 41.3801 29.7553 41.2849 29.8283 41.1737C29.9013 41.0624 29.9509 40.9375 29.9741 40.8064C29.9972 40.6754 29.9934 40.5411 29.963 40.4115C29.9325 40.282 29.876 40.1601 29.7968 40.0531Z" fill="#1B74BA"/>
<path d="M40.6656 36.9726C40.6155 36.8399 40.5371 36.7197 40.4359 36.6203C40.3347 36.5209 40.2131 36.4446 40.0795 36.3968L36.3196 35.049C36.1753 34.9971 36.0209 34.9798 35.8687 34.9985C35.7165 35.0172 35.5708 35.0714 35.4434 35.1566L28.4768 39.8118L28.471 39.8156L29.0181 40.629L28.4588 39.8239C28.3007 39.9285 28.1763 40.0767 28.1008 40.2505C28.0252 40.4244 28.0016 40.6164 28.0329 40.8033C28.0581 40.955 28.1187 41.0986 28.2097 41.2226L33.3102 48.1691C33.4076 48.302 33.537 48.4081 33.6863 48.4778C33.8357 48.5474 34.0002 48.5782 34.1646 48.5675C34.329 48.5567 34.4881 48.5047 34.627 48.4162C34.766 48.3277 34.8805 48.2056 34.9598 48.0612L40.6076 37.7924C40.6761 37.6681 40.7167 37.5304 40.7267 37.3889C40.7367 37.2474 40.7159 37.1053 40.6656 36.9726ZM33.9817 45.7699L30.3969 40.8875L36.1224 37.0617L38.3351 37.855L33.9817 45.7699Z" fill="#1B74BA"/>
<path d="M29.9666 40.4726C29.9438 40.3423 29.8949 40.218 29.8228 40.1071C29.7507 39.9962 29.6569 39.9011 29.547 39.8274L22.5572 35.1567C22.4297 35.0715 22.2841 35.0175 22.1319 34.9988C21.9797 34.9801 21.8253 34.9973 21.681 35.049L17.9211 36.3969C17.7875 36.4447 17.6659 36.521 17.5647 36.6204C17.4634 36.7198 17.385 36.84 17.3348 36.9727C17.2845 37.1054 17.2637 37.2475 17.2738 37.389C17.2838 37.5305 17.3244 37.6682 17.3929 37.7925L23.0407 48.0612C23.1253 48.2151 23.2497 48.3434 23.4009 48.4327C23.552 48.5221 23.7244 48.5693 23.9 48.5693C24.0539 48.5692 24.2057 48.533 24.343 48.4634C24.4803 48.3938 24.5993 48.2929 24.6904 48.1688L27.4158 44.4572L27.4222 44.4482L29.791 41.2219C29.8693 41.1153 29.9252 40.9939 29.9554 40.8652C29.9856 40.7364 29.9894 40.6029 29.9666 40.4726ZM25.835 43.296L25.828 43.3056L24.0186 45.77L19.6652 37.8549L21.878 37.0617L27.6033 40.8876L25.835 43.296ZM57.9518 53.713L56.6868 46.0741C56.2882 43.6668 54.6151 41.6555 52.3205 40.8256L40.0823 36.3979C39.898 36.3312 39.6979 36.3213 39.5079 36.3694C39.3179 36.4175 39.1467 36.5214 39.0164 36.6678C38.886 36.8141 38.8025 36.9962 38.7766 37.1905C38.7508 37.3848 38.7837 37.5823 38.8712 37.7577L41.4264 42.8819L38.9191 42.9205C38.7517 42.923 38.5877 42.9684 38.4428 43.0523C38.2978 43.1362 38.1768 43.2558 38.0912 43.3997C38.0056 43.5437 37.9583 43.7071 37.9538 43.8745C37.9494 44.0419 37.9878 44.2077 38.0655 44.356L39.0939 46.3195L28.5697 55.9469C28.559 55.9568 28.5485 55.9668 28.5381 55.9771L28.3209 56.1944C28.171 56.3442 28.0737 56.5387 28.0437 56.7485C28.0136 56.9583 28.0523 57.1722 28.154 57.3582L28.1617 57.3721C28.2462 57.5265 28.3706 57.6553 28.522 57.745C28.6734 57.8347 28.8461 57.8821 29.0221 57.8821H54.4165C54.9367 57.8826 55.4508 57.7695 55.9228 57.5509C56.3949 57.3323 56.8136 57.0133 57.1497 56.6162C57.4865 56.2197 57.7327 55.7546 57.8712 55.2532C58.0098 54.7518 58.0373 54.2262 57.9518 53.713ZM55.6542 55.3478C55.5019 55.5276 55.3124 55.672 55.0986 55.771C54.8849 55.87 54.6521 55.9212 54.4166 55.921H31.5036L40.9752 47.2568C41.1349 47.1108 41.2419 46.916 41.2793 46.7028C41.3167 46.4896 41.2825 46.27 41.182 46.0783L40.5422 44.8568L43.0147 44.8188C43.1805 44.8162 43.3429 44.7717 43.4868 44.6893C43.6307 44.6069 43.7513 44.4894 43.8375 44.3478C43.9236 44.2061 43.9725 44.045 43.9794 43.8793C43.9864 43.7137 43.9512 43.549 43.8772 43.4006L41.7207 39.076L51.6539 42.6696C53.2823 43.2587 54.4696 44.686 54.7524 46.3944L56.0175 54.0333V54.0334C56.0561 54.2657 56.0436 54.5037 55.9809 54.7307C55.9181 54.9577 55.8066 55.1683 55.6542 55.3478Z" fill="#1B74BA"/>
<path d="M29.6797 56.1748L29.6683 56.1645C29.4814 55.9953 29.2365 55.9046 28.9844 55.9112C28.7324 55.9179 28.4926 56.0213 28.3148 56.2L28.3046 56.2103C28.1681 56.3477 28.0753 56.5225 28.0379 56.7125C28.0005 56.9026 28.0203 57.0994 28.0947 57.2783C28.1691 57.4571 28.2947 57.61 28.4559 57.7175C28.617 57.825 28.8064 57.8823 29.0001 57.8824H29.0216C29.2197 57.8824 29.4131 57.8224 29.5764 57.7103C29.7397 57.5982 29.8652 57.4393 29.9364 57.2544C30.0078 57.0696 30.0214 56.8675 29.9756 56.6748C29.9298 56.482 29.8266 56.3077 29.6797 56.1748Z" fill="#1B74BA"/>
<path d="M29.6489 56.1462C29.539 56.0473 29.4081 55.9744 29.2661 55.9333C29.124 55.8921 28.9745 55.8836 28.8287 55.9085C28.6829 55.9332 28.5446 55.9905 28.4242 56.0763C28.3037 56.162 28.2042 56.2739 28.1331 56.4035L28.1263 56.4159C28.0256 56.5995 27.9863 56.8105 28.0142 57.0181C28.0421 57.2257 28.1357 57.4189 28.2814 57.5694L28.2849 57.573C28.3762 57.6677 28.4857 57.7429 28.6068 57.7942C28.7279 57.8456 28.8582 57.8719 28.9897 57.8717C29.2259 57.8717 29.4628 57.7868 29.6504 57.6154L29.6607 57.6061C29.7498 57.5248 29.8231 57.4278 29.877 57.32C30.0745 56.9254 29.9768 56.4412 29.6489 56.1462Z" fill="#1B74BA"/>
<path d="M29.6912 56.2063L29.6871 56.2022L29.6793 56.1943L29.4618 55.9771C29.4516 55.9668 29.4412 55.9568 29.4304 55.947L18.9063 46.3196L19.9348 44.3561C20.0124 44.2078 20.0508 44.0421 20.0462 43.8747C20.0417 43.7074 19.9944 43.544 19.9088 43.4001C19.8233 43.2562 19.7023 43.1365 19.5575 43.0526C19.4126 42.9687 19.2487 42.9233 19.0813 42.9206L16.5738 42.882L19.129 37.7578C19.308 37.3989 19.2502 36.9672 18.9836 36.6678C18.7171 36.3684 18.2948 36.2614 17.9179 36.398L5.67978 40.8257C3.38516 41.6555 1.71199 43.6668 1.31336 46.0742L0.0483458 53.7131C-0.0370507 54.2263 -0.00950014 54.7519 0.129077 55.2533C0.267654 55.7548 0.513923 56.2199 0.850717 56.6164C1.1869 57.0134 1.6056 57.3323 2.07766 57.551C2.54971 57.7696 3.06375 57.8826 3.58397 57.8822H29C29.1942 57.8823 29.384 57.8247 29.5455 57.7167C29.7069 57.6087 29.8326 57.4552 29.9066 57.2757C29.9807 57.0962 29.9998 56.8987 29.9614 56.7083C29.923 56.5179 29.829 56.3432 29.6912 56.2063ZM3.58408 55.9211C3.34854 55.9213 3.11578 55.8701 2.90205 55.7711C2.68832 55.6721 2.49876 55.5277 2.3466 55.3479C2.19415 55.1684 2.08268 54.9577 2.01996 54.7307C1.95723 54.5037 1.94476 54.2657 1.98342 54.0334L3.24843 46.3945C3.38801 45.5546 3.74856 44.7669 4.29309 44.1123C4.83762 43.4577 5.54651 42.9598 6.34701 42.6697L16.2801 39.0761L14.1237 43.4005C14.0496 43.5488 14.0145 43.7136 14.0214 43.8792C14.0284 44.0449 14.0772 44.2061 14.1634 44.3477C14.2495 44.4894 14.3702 44.6069 14.5141 44.6893C14.658 44.7716 14.8204 44.8161 14.9862 44.8186L17.4587 44.8568L16.8188 46.0783C16.7184 46.27 16.6842 46.4896 16.7216 46.7027C16.759 46.9159 16.8659 47.1107 17.0256 47.2568L26.4971 55.9211H3.58408Z" fill="#1B74BA"/>
<path d="M32.3378 44.1297C32.3727 43.9899 32.3764 43.844 32.3486 43.7026C32.3208 43.5612 32.2621 43.4276 32.1768 43.3114L29.7904 40.0615C29.5396 39.7198 29.0974 39.584 28.6948 39.7161C28.4823 39.7862 28.3003 39.927 28.1791 40.115L25.8363 43.2938C25.7144 43.4588 25.6473 43.6578 25.6443 43.8629C25.6414 44.0681 25.7028 44.2689 25.82 44.4373L26.8177 45.87L25.7549 52.5691C25.7208 52.7842 25.7593 53.0045 25.8642 53.1953L28.1409 57.3347C28.2255 57.4886 28.3499 57.6169 28.501 57.7063C28.6522 57.7957 28.8246 57.8428 29.0002 57.8428C29.1758 57.8428 29.3481 57.7957 29.4993 57.7063C29.6504 57.6169 29.7748 57.4886 29.8594 57.3347L32.1531 53.1646C32.2327 53.0198 32.2744 52.8573 32.2744 52.6921V52.6915C32.2744 52.6401 32.2703 52.5887 32.2623 52.5378L31.2044 45.8701L32.1913 44.4532C32.2592 44.355 32.3088 44.2455 32.3378 44.1297ZM29.0002 54.8275L27.7444 52.5445L28.8165 45.7874C28.8563 45.5372 28.7976 45.2813 28.6527 45.0734L27.831 43.8932L29.003 42.303L30.1811 43.9075L29.3692 45.0734C29.2244 45.2813 29.1657 45.5372 29.2054 45.7874L30.2727 52.5137L29.0002 54.8275Z" fill="#1B74BA"/>
</g>
<defs>
<clipPath id="clip0_104_520">
<rect width="58" height="58" fill="white"/>
</clipPath>
</defs>
</svg>
