<svg width="54" height="58" viewBox="0 0 54 58" fill="none" xmlns="http://www.w3.org/2000/svg">
<path d="M53.9129 52.6572C53.4588 48.4139 50.5968 44.9798 46.7672 43.6423C48.1802 42.5638 49.0943 40.8634 49.0943 38.9527C49.0943 36.7478 47.8772 34.8227 46.0803 33.8109C46.6498 32.629 47.1049 31.3953 47.4394 30.1267L50.8196 28.8257C50.9906 28.7599 51.1376 28.6439 51.2412 28.4929C51.3449 28.3419 51.4004 28.163 51.4003 27.9799V21.7415C51.4003 21.5584 51.3448 21.3795 51.2412 21.2285C51.1375 21.0776 50.9906 20.9615 50.8196 20.8957L47.4404 19.5951C46.9663 17.7904 46.2484 16.0588 45.3066 14.448L46.7773 11.1366C46.8517 10.9692 46.8736 10.7832 46.8401 10.6032C46.8067 10.4231 46.7194 10.2574 46.59 10.1279L42.1787 5.71685C42.0491 5.58742 41.8834 5.50024 41.7034 5.46679C41.5233 5.43335 41.3374 5.45521 41.17 5.52948L37.8574 7.00067C36.2471 6.05922 34.516 5.34152 32.712 4.86736L31.4108 1.48716C31.3451 1.31621 31.2292 1.16919 31.0782 1.06549C30.9273 0.961785 30.7484 0.906265 30.5653 0.90625H24.327C24.1439 0.906248 23.965 0.961733 23.8141 1.06539C23.6631 1.16905 23.547 1.31602 23.4813 1.48693L22.1801 4.86713C20.376 5.3413 18.645 6.059 17.0346 7.00044L13.722 5.52926C13.5546 5.4549 13.3686 5.433 13.1886 5.46645C13.0085 5.4999 12.8428 5.58712 12.7133 5.71663L8.30214 10.128C8.17263 10.2575 8.0854 10.4232 8.05195 10.6032C8.0185 10.7833 8.0404 10.9692 8.11477 11.1366L9.58584 14.4487C8.64419 16.0591 7.92644 17.7903 7.45241 19.5946L4.07255 20.8956C3.90164 20.9614 3.75467 21.0775 3.65101 21.2284C3.54736 21.3794 3.49187 21.5583 3.49187 21.7414V27.9797C3.49187 28.1628 3.54736 28.3417 3.65101 28.4926C3.75467 28.6436 3.90164 28.7596 4.07255 28.8254L7.45185 30.1261C7.75338 31.2714 8.15316 32.3885 8.64674 33.465C6.45882 34.328 4.90574 36.4616 4.90574 38.9524C4.90574 40.8632 5.81969 42.5636 7.23276 43.6421C3.40306 44.9795 0.541123 48.4137 0.0870921 52.6571C0.0735316 52.7835 0.0867321 52.9114 0.125835 53.0324C0.164938 53.1533 0.229069 53.2647 0.314056 53.3593C0.399043 53.4539 0.502984 53.5295 0.619119 53.5813C0.735254 53.633 0.860984 53.6598 0.988131 53.6597L16.8314 53.6596C16.5559 54.4462 16.3721 55.2619 16.2836 56.0906C16.2701 56.2171 16.2833 56.3449 16.3224 56.4659C16.3615 56.5868 16.4257 56.6982 16.5106 56.7928C16.5956 56.8874 16.6995 56.963 16.8157 57.0148C16.9318 57.0665 17.0575 57.0933 17.1846 57.0933H36.815C36.9422 57.0933 37.0679 57.0665 37.184 57.0148C37.3001 56.963 37.404 56.8874 37.489 56.7928C37.574 56.6982 37.6381 56.5868 37.6772 56.4659C37.7164 56.3449 37.7296 56.2171 37.7161 56.0906C37.6277 55.262 37.4439 54.4463 37.1684 53.6597L53.0116 53.6596C53.1388 53.6596 53.2645 53.6328 53.3806 53.5811C53.4967 53.5293 53.6006 53.4537 53.6856 53.3592C53.7706 53.2646 53.8347 53.1533 53.8739 53.0324C53.913 52.9114 53.9263 52.7836 53.9129 52.6572ZM47.2819 38.9527C47.2819 41.2053 45.4493 43.0378 43.1967 43.0378C40.9442 43.0378 39.1116 41.2053 39.1116 38.9527C39.1116 36.7001 40.9441 34.8675 43.1967 34.8675C45.4492 34.8674 47.2819 36.7001 47.2819 38.9527ZM33.6688 48.7743C32.7368 48.0411 31.6899 47.4672 30.5705 47.076C31.3068 46.5146 31.9015 45.7887 32.3071 44.9565C34.2569 44.4865 36.1274 43.7335 37.8589 42.7213L39.2701 43.3482C39.3852 43.4511 39.5043 43.5495 39.6271 43.6432C38.7041 43.9672 37.8296 44.4158 37.0281 44.9766C35.6104 45.9677 34.4665 47.2657 33.6688 48.7743ZM20.3311 48.7743C19.5334 47.2657 18.3896 45.9678 16.972 44.9767C16.2635 44.4815 15.4979 44.0735 14.6917 43.7616L17.0348 42.7209C18.4613 43.5534 19.9828 44.2112 21.5666 44.6799C21.9701 45.6322 22.6176 46.4564 23.4293 47.076C22.3099 47.4673 21.2631 48.0411 20.3311 48.7743ZM26.9999 46.4714C24.7474 46.4714 22.9147 44.6388 22.9147 42.3862C22.9147 40.1336 24.7473 38.3011 26.9999 38.3011C29.2525 38.3011 31.085 40.1336 31.085 42.3862C31.085 44.6388 29.2525 46.4714 26.9999 46.4714ZM22.0623 21.5989C22.0623 18.6302 24.4774 16.2151 27.4461 16.2151C30.4147 16.2151 32.8299 18.6302 32.8299 21.5989C32.8299 24.5666 30.4161 26.9811 27.4487 26.9826H27.4435C24.4761 26.981 22.0623 24.5666 22.0623 21.5989ZM26.6744 28.8214C26.9304 28.8039 27.1869 28.7951 27.4435 28.7951H27.4487C27.7062 28.7951 27.9627 28.8041 28.2178 28.8214L27.4461 29.419L26.6744 28.8214ZM28.7479 30.7033L30.6265 29.2484C30.7595 29.2869 30.8917 29.3275 31.023 29.3707L29.6649 31.7908L28.7479 30.7033ZM24.2656 29.2483L26.1442 30.7032L25.227 31.7907L23.869 29.3705C24.0004 29.3275 24.1326 29.2868 24.2656 29.2483ZM26.4112 36.4957L27.3115 32.1305L27.4461 31.971L27.5807 32.1305L28.481 36.4957L28.3457 36.6454C27.9046 36.5415 27.453 36.4889 26.9999 36.4886C26.8076 36.4886 26.6177 36.4985 26.4301 36.5167L26.4112 36.4957ZM30.5584 37.6871C30.417 37.58 30.2709 37.4792 30.1204 37.3852L30.1336 37.3707C30.2291 37.2651 30.2984 37.1384 30.3359 37.001C30.3733 36.8636 30.3778 36.7193 30.349 36.5798L29.8743 34.2781C29.8832 34.2775 29.8921 34.2777 29.901 34.2769C30.0468 34.263 30.1871 34.2141 30.3098 34.1342C30.4325 34.0543 30.5341 33.9459 30.6057 33.8182L32.7063 30.0748C34.429 30.96 35.9283 32.2728 37.0308 33.9151C35.3193 35.7322 33.0932 37.0741 30.5584 37.6871ZM38.2223 32.4566C36.5243 30.1405 34.1222 28.4442 31.4192 27.5951C33.3602 26.3048 34.6425 24.0992 34.6425 21.5989C34.6425 17.6309 31.4142 14.4026 27.4462 14.4026C23.4782 14.4026 20.2499 17.6309 20.2499 21.5989C20.2499 24.0992 21.5323 26.3048 23.4732 27.5951C20.7658 28.4456 18.3605 30.146 16.6621 32.4675C15.1323 30.2972 14.2501 27.6608 14.2501 24.8608C14.2501 17.5844 20.1698 11.6646 27.4463 11.6646C34.7228 11.6646 40.6426 17.5844 40.6426 24.8608C40.6423 27.6535 39.7525 30.2872 38.2223 32.4566ZM22.1859 30.0747L24.2865 33.8181C24.3581 33.9458 24.4597 34.0542 24.5824 34.1341C24.7051 34.214 24.8454 34.2629 24.9912 34.2768C25.0001 34.2777 25.009 34.2774 25.0179 34.278L24.5432 36.5797C24.5134 36.7252 24.5199 36.8758 24.5621 37.0182C24.2562 37.1572 23.9628 37.3222 23.685 37.5112C21.4055 36.8356 19.4141 35.5768 17.855 33.9242C18.9583 32.2778 20.4599 30.9616 22.1859 30.0747ZM9.09816 29.2398C9.06407 29.0966 8.99562 28.9639 8.89873 28.8531C8.80184 28.7424 8.67942 28.6568 8.54206 28.604L5.30426 27.3577V22.3638L8.54263 21.1172C8.67998 21.0643 8.80238 20.9788 8.89927 20.868C8.99616 20.7572 9.06462 20.6245 9.09873 20.4814C9.56059 18.5401 10.3296 16.6851 11.3768 14.9865C11.454 14.8612 11.4995 14.7189 11.5093 14.572C11.5192 14.4251 11.4931 14.2781 11.4333 14.1435L10.0238 10.9697L13.555 7.43839L16.7291 8.84806C16.8636 8.90784 17.0107 8.93394 17.1576 8.92409C17.3045 8.91424 17.4467 8.86874 17.5721 8.79153C19.2705 7.74444 21.1254 6.97542 23.0665 6.51356C23.2097 6.47953 23.3425 6.41112 23.4533 6.31424C23.5641 6.21736 23.6496 6.09494 23.7025 5.95757L24.9492 2.71875H29.9429L31.1896 5.95746C31.2424 6.09482 31.3279 6.21724 31.4387 6.31412C31.5495 6.41099 31.6823 6.47941 31.8254 6.51345C33.7665 6.9754 35.6214 7.74441 37.3199 8.79142C37.4453 8.86857 37.5875 8.91403 37.7344 8.92388C37.8813 8.93373 38.0283 8.90767 38.1628 8.84795L41.337 7.43827L44.8682 10.9694L43.459 14.1425C43.3992 14.277 43.3731 14.4241 43.383 14.571C43.3929 14.7179 43.4384 14.8602 43.5156 14.9855C44.563 16.6844 45.3321 18.5397 45.7939 20.4814C45.828 20.6246 45.8964 20.7573 45.9933 20.8681C46.0902 20.9789 46.2127 21.0645 46.35 21.1173L49.5878 22.3636V27.3575L46.3491 28.6042C46.2118 28.6571 46.0893 28.7426 45.9925 28.8534C45.8956 28.9642 45.8271 29.0969 45.793 29.24C45.4687 30.5999 44.9933 31.9193 44.3756 33.1735C43.9876 33.0945 43.5925 33.0548 43.1965 33.0549C39.9445 33.0549 37.2989 35.7006 37.2989 38.9526C37.2989 39.6043 37.4067 40.231 37.6028 40.8176C37.5032 40.839 37.4079 40.8771 37.3209 40.9302C35.931 41.7868 34.4352 42.4581 32.8714 42.9271C32.8877 42.7488 32.8972 42.5686 32.8972 42.3862C32.8981 41.2481 32.5677 40.1344 31.9462 39.1809C34.7045 38.3121 37.1855 36.6457 39.0407 34.3912C41.2421 31.7158 42.4544 28.3312 42.4544 24.8606C42.4544 16.5847 35.7215 9.85184 27.4456 9.85184C19.1698 9.85184 12.4369 16.5848 12.4369 24.8606C12.4369 31.1847 16.3932 36.7765 22.2216 38.935C21.5181 39.906 21.1018 41.0981 21.1018 42.3862C21.1018 42.4664 21.1046 42.5459 21.1078 42.6254C19.8731 42.1851 18.6879 41.6168 17.5716 40.9298C17.4463 40.8525 17.304 40.807 17.1571 40.7972C17.0103 40.7873 16.8632 40.8134 16.7287 40.8732L16.31 41.0591C16.5683 40.3869 16.7006 39.6728 16.7004 38.9527C16.7004 35.7007 14.0547 33.055 10.8027 33.055C10.688 33.055 10.5741 33.0592 10.4609 33.0657C9.86986 31.8433 9.41293 30.5606 9.09816 29.2398ZM10.8034 34.8674C13.0559 34.8674 14.8885 36.7001 14.8885 38.9526C14.8885 41.205 13.056 43.0377 10.8034 43.0377C8.55079 43.0377 6.71824 41.2052 6.71824 38.9526C6.71824 36.7 8.5509 34.8674 10.8034 34.8674ZM2.05365 51.8476C2.95424 47.7946 6.55273 44.8502 10.8034 44.8502C14.296 44.8502 17.4998 46.927 18.9502 50.0719C18.4616 50.6182 18.0302 51.2132 17.6629 51.8475L2.05365 51.8476ZM18.2503 55.2813C19.151 51.2283 22.7493 48.2839 27 48.2839C31.2507 48.2839 34.8491 51.2282 35.7497 55.2813H18.2503ZM36.3371 51.8476C35.9697 51.2133 35.5383 50.6183 35.0496 50.0719C36.5001 46.9271 39.704 44.8502 43.1966 44.8502C47.4471 44.8502 51.0456 47.7945 51.9462 51.8475L36.3371 51.8476Z" fill="#1B74BA"/>
</svg>
