<svg width="16" height="12" viewBox="0 0 16 12" fill="none" xmlns="http://www.w3.org/2000/svg">
<path d="M15.2545 5.24791H2.53447L6.02247 1.75991C6.1718 1.61057 6.24647 1.43457 6.24647 1.23191C6.24647 1.02924 6.17447 0.853239 6.03047 0.703906C5.88647 0.554572 5.71047 0.479906 5.50247 0.479906C5.29447 0.479906 5.1158 0.554572 4.96647 0.703906L0.214471 5.47191C0.0651376 5.61057 -0.00952911 5.78391 -0.00952911 5.99191C-0.00952911 6.19991 0.0651376 6.37857 0.214471 6.52791L4.96647 11.2799C5.1158 11.4292 5.2918 11.5039 5.49447 11.5039C5.69714 11.5039 5.87314 11.4292 6.02247 11.2799C6.1718 11.1306 6.24647 10.9546 6.24647 10.7519C6.24647 10.5492 6.1718 10.3786 6.02247 10.2399L2.53447 6.73591H15.2545C15.4571 6.73591 15.6305 6.66391 15.7745 6.51991C15.9185 6.37591 15.9905 6.20257 15.9905 5.99991C15.9905 5.79724 15.9185 5.62124 15.7745 5.47191C15.6305 5.32257 15.4571 5.24791 15.2545 5.24791Z" fill="#1B2A41"/>
</svg>
